<mxfile host="app.diagrams.net" modified="2021-12-10T16:18:56.831Z" agent="5.0 (Windows NT 10.0; Win64; x64) AppleWebKit/537.36 (KHTML, like Gecko) Chrome/95.0.4638.69 Safari/537.36 OPR/81.0.4196.61" etag="yNoewj4kOzRZUMBmSXze" version="15.9.4" type="github">
  <diagram id="G4b3-uMn6Fvr98NuuHYQ" name="Page-1">
    <mxGraphModel dx="1123" dy="1655" grid="1" gridSize="10" guides="1" tooltips="1" connect="1" arrows="1" fold="1" page="1" pageScale="1" pageWidth="827" pageHeight="1169" math="0" shadow="0">
      <root>
        <mxCell id="0" />
        <mxCell id="1" parent="0" />
        <mxCell id="-mBi3haW6h9Ss_a0iaR0-40" value="ar" style="rounded=1;arcSize=10;dashed=1;fillColor=none;gradientColor=none;dashPattern=1 1;strokeWidth=2;" vertex="1" parent="1">
          <mxGeometry x="74" y="780" width="1010" height="430" as="geometry" />
        </mxCell>
        <mxCell id="-mBi3haW6h9Ss_a0iaR0-8" style="edgeStyle=orthogonalEdgeStyle;rounded=0;orthogonalLoop=1;jettySize=auto;html=1;" edge="1" parent="1" source="-mBi3haW6h9Ss_a0iaR0-2" target="-mBi3haW6h9Ss_a0iaR0-3">
          <mxGeometry relative="1" as="geometry">
            <Array as="points">
              <mxPoint x="279" y="10" />
            </Array>
          </mxGeometry>
        </mxCell>
        <mxCell id="-mBi3haW6h9Ss_a0iaR0-9" style="edgeStyle=orthogonalEdgeStyle;rounded=0;orthogonalLoop=1;jettySize=auto;html=1;" edge="1" parent="1" source="-mBi3haW6h9Ss_a0iaR0-2" target="-mBi3haW6h9Ss_a0iaR0-4">
          <mxGeometry relative="1" as="geometry">
            <Array as="points">
              <mxPoint x="279" y="120" />
            </Array>
          </mxGeometry>
        </mxCell>
        <mxCell id="-mBi3haW6h9Ss_a0iaR0-10" style="edgeStyle=orthogonalEdgeStyle;rounded=0;orthogonalLoop=1;jettySize=auto;html=1;entryX=0;entryY=0.5;entryDx=0;entryDy=0;entryPerimeter=0;" edge="1" parent="1" source="-mBi3haW6h9Ss_a0iaR0-2" target="-mBi3haW6h9Ss_a0iaR0-5">
          <mxGeometry relative="1" as="geometry" />
        </mxCell>
        <mxCell id="-mBi3haW6h9Ss_a0iaR0-11" style="edgeStyle=orthogonalEdgeStyle;rounded=0;orthogonalLoop=1;jettySize=auto;html=1;entryX=0;entryY=0.75;entryDx=0;entryDy=0;entryPerimeter=0;" edge="1" parent="1" source="-mBi3haW6h9Ss_a0iaR0-2" target="-mBi3haW6h9Ss_a0iaR0-6">
          <mxGeometry relative="1" as="geometry">
            <Array as="points">
              <mxPoint x="290" y="539" />
            </Array>
          </mxGeometry>
        </mxCell>
        <mxCell id="-mBi3haW6h9Ss_a0iaR0-2" value="&lt;div style=&quot;color: rgb(212 , 212 , 212) ; background-color: rgb(30 , 30 , 30) ; font-family: &amp;#34;consolas&amp;#34; , &amp;#34;courier new&amp;#34; , monospace ; font-size: 14px ; line-height: 19px&quot;&gt;&lt;span style=&quot;color: #ce9178&quot;&gt;serverless-star-wars-rest-api&lt;/span&gt;&lt;/div&gt;" style="sketch=0;points=[[0,0,0],[0.25,0,0],[0.5,0,0],[0.75,0,0],[1,0,0],[0,1,0],[0.25,1,0],[0.5,1,0],[0.75,1,0],[1,1,0],[0,0.25,0],[0,0.5,0],[0,0.75,0],[1,0.25,0],[1,0.5,0],[1,0.75,0]];outlineConnect=0;fontColor=#232F3E;gradientColor=#945DF2;gradientDirection=north;fillColor=#5A30B5;strokeColor=#ffffff;dashed=0;verticalLabelPosition=bottom;verticalAlign=top;align=center;html=1;fontSize=12;fontStyle=0;aspect=fixed;shape=mxgraph.aws4.resourceIcon;resIcon=mxgraph.aws4.api_gateway;" vertex="1" parent="1">
          <mxGeometry x="240" y="251.5" width="78" height="78" as="geometry" />
        </mxCell>
        <mxCell id="-mBi3haW6h9Ss_a0iaR0-13" style="edgeStyle=orthogonalEdgeStyle;rounded=0;orthogonalLoop=1;jettySize=auto;html=1;" edge="1" parent="1" source="-mBi3haW6h9Ss_a0iaR0-3" target="-mBi3haW6h9Ss_a0iaR0-7">
          <mxGeometry relative="1" as="geometry" />
        </mxCell>
        <mxCell id="-mBi3haW6h9Ss_a0iaR0-3" value="&lt;span style=&quot;color: rgb(86 , 156 , 214) ; background-color: rgb(30 , 30 , 30) ; font-family: &amp;#34;consolas&amp;#34; , &amp;#34;courier new&amp;#34; , monospace ; font-size: 14px&quot;&gt;createRoot&lt;/span&gt;&lt;br&gt;&lt;br&gt;" style="sketch=0;points=[[0,0,0],[0.25,0,0],[0.5,0,0],[0.75,0,0],[1,0,0],[0,1,0],[0.25,1,0],[0.5,1,0],[0.75,1,0],[1,1,0],[0,0.25,0],[0,0.5,0],[0,0.75,0],[1,0.25,0],[1,0.5,0],[1,0.75,0]];outlineConnect=0;fontColor=#232F3E;gradientColor=#F78E04;gradientDirection=north;fillColor=#D05C17;strokeColor=#ffffff;dashed=0;verticalLabelPosition=bottom;verticalAlign=top;align=center;html=1;fontSize=12;fontStyle=0;aspect=fixed;shape=mxgraph.aws4.resourceIcon;resIcon=mxgraph.aws4.lambda;" vertex="1" parent="1">
          <mxGeometry x="540" y="-20" width="78" height="78" as="geometry" />
        </mxCell>
        <mxCell id="-mBi3haW6h9Ss_a0iaR0-14" style="edgeStyle=orthogonalEdgeStyle;rounded=0;orthogonalLoop=1;jettySize=auto;html=1;" edge="1" parent="1" source="-mBi3haW6h9Ss_a0iaR0-4" target="-mBi3haW6h9Ss_a0iaR0-7">
          <mxGeometry relative="1" as="geometry" />
        </mxCell>
        <mxCell id="-mBi3haW6h9Ss_a0iaR0-4" value="&lt;div style=&quot;color: rgb(212 , 212 , 212) ; background-color: rgb(30 , 30 , 30) ; font-family: &amp;#34;consolas&amp;#34; , &amp;#34;courier new&amp;#34; , monospace ; font-size: 14px ; line-height: 19px&quot;&gt;&lt;span style=&quot;color: #569cd6&quot;&gt;listRoots&lt;/span&gt;&lt;/div&gt;" style="sketch=0;points=[[0,0,0],[0.25,0,0],[0.5,0,0],[0.75,0,0],[1,0,0],[0,1,0],[0.25,1,0],[0.5,1,0],[0.75,1,0],[1,1,0],[0,0.25,0],[0,0.5,0],[0,0.75,0],[1,0.25,0],[1,0.5,0],[1,0.75,0]];outlineConnect=0;fontColor=#232F3E;gradientColor=#F78E04;gradientDirection=north;fillColor=#D05C17;strokeColor=#ffffff;dashed=0;verticalLabelPosition=bottom;verticalAlign=top;align=center;html=1;fontSize=12;fontStyle=0;aspect=fixed;shape=mxgraph.aws4.resourceIcon;resIcon=mxgraph.aws4.lambda;" vertex="1" parent="1">
          <mxGeometry x="530" y="90" width="78" height="78" as="geometry" />
        </mxCell>
        <mxCell id="-mBi3haW6h9Ss_a0iaR0-15" style="edgeStyle=orthogonalEdgeStyle;rounded=0;orthogonalLoop=1;jettySize=auto;html=1;" edge="1" parent="1" source="-mBi3haW6h9Ss_a0iaR0-5" target="-mBi3haW6h9Ss_a0iaR0-7">
          <mxGeometry relative="1" as="geometry" />
        </mxCell>
        <mxCell id="-mBi3haW6h9Ss_a0iaR0-5" value="&lt;div style=&quot;color: rgb(212 , 212 , 212) ; background-color: rgb(30 , 30 , 30) ; font-family: &amp;#34;consolas&amp;#34; , &amp;#34;courier new&amp;#34; , monospace ; font-size: 14px ; line-height: 19px&quot;&gt;&lt;span style=&quot;color: #569cd6&quot;&gt;getRoot&lt;/span&gt;&lt;/div&gt;" style="sketch=0;points=[[0,0,0],[0.25,0,0],[0.5,0,0],[0.75,0,0],[1,0,0],[0,1,0],[0.25,1,0],[0.5,1,0],[0.75,1,0],[1,1,0],[0,0.25,0],[0,0.5,0],[0,0.75,0],[1,0.25,0],[1,0.5,0],[1,0.75,0]];outlineConnect=0;fontColor=#232F3E;gradientColor=#F78E04;gradientDirection=north;fillColor=#D05C17;strokeColor=#ffffff;dashed=0;verticalLabelPosition=bottom;verticalAlign=top;align=center;html=1;fontSize=12;fontStyle=0;aspect=fixed;shape=mxgraph.aws4.resourceIcon;resIcon=mxgraph.aws4.lambda;" vertex="1" parent="1">
          <mxGeometry x="540" y="210" width="78" height="78" as="geometry" />
        </mxCell>
        <mxCell id="-mBi3haW6h9Ss_a0iaR0-16" style="edgeStyle=orthogonalEdgeStyle;rounded=0;orthogonalLoop=1;jettySize=auto;html=1;" edge="1" parent="1" source="-mBi3haW6h9Ss_a0iaR0-6" target="-mBi3haW6h9Ss_a0iaR0-7">
          <mxGeometry relative="1" as="geometry" />
        </mxCell>
        <mxCell id="-mBi3haW6h9Ss_a0iaR0-6" value="&lt;div style=&quot;color: rgb(212 , 212 , 212) ; background-color: rgb(30 , 30 , 30) ; font-family: &amp;#34;consolas&amp;#34; , &amp;#34;courier new&amp;#34; , monospace ; font-size: 14px ; line-height: 19px&quot;&gt;&lt;span style=&quot;color: #569cd6&quot;&gt;getServicesPeople&lt;/span&gt;&lt;/div&gt;" style="sketch=0;points=[[0,0,0],[0.25,0,0],[0.5,0,0],[0.75,0,0],[1,0,0],[0,1,0],[0.25,1,0],[0.5,1,0],[0.75,1,0],[1,1,0],[0,0.25,0],[0,0.5,0],[0,0.75,0],[1,0.25,0],[1,0.5,0],[1,0.75,0]];outlineConnect=0;fontColor=#232F3E;gradientColor=#F78E04;gradientDirection=north;fillColor=#D05C17;strokeColor=#ffffff;dashed=0;verticalLabelPosition=bottom;verticalAlign=top;align=center;html=1;fontSize=12;fontStyle=0;aspect=fixed;shape=mxgraph.aws4.resourceIcon;resIcon=mxgraph.aws4.lambda;" vertex="1" parent="1">
          <mxGeometry x="520" y="480" width="78" height="78" as="geometry" />
        </mxCell>
        <mxCell id="-mBi3haW6h9Ss_a0iaR0-7" value="" style="outlineConnect=0;dashed=0;verticalLabelPosition=bottom;verticalAlign=top;align=center;html=1;shape=mxgraph.aws3.dynamo_db;fillColor=#2E73B8;gradientColor=none;" vertex="1" parent="1">
          <mxGeometry x="740" y="250" width="72" height="81" as="geometry" />
        </mxCell>
        <mxCell id="-mBi3haW6h9Ss_a0iaR0-18" style="edgeStyle=orthogonalEdgeStyle;rounded=0;orthogonalLoop=1;jettySize=auto;html=1;" edge="1" parent="1" source="-mBi3haW6h9Ss_a0iaR0-17" target="-mBi3haW6h9Ss_a0iaR0-6">
          <mxGeometry relative="1" as="geometry">
            <Array as="points">
              <mxPoint x="559" y="606" />
            </Array>
          </mxGeometry>
        </mxCell>
        <mxCell id="-mBi3haW6h9Ss_a0iaR0-17" value="swapi" style="shape=image;verticalLabelPosition=bottom;labelBackgroundColor=#ffffff;verticalAlign=top;aspect=fixed;imageAspect=0;image=data:image/png,iVBORw0KGgoAAAANSUhEUgAAAKkAAAC1CAYAAAAkwd/PAAAgAElEQVR4Ae29+Xdd2XXnx/80S6XiXCWpijOr7KS7o7VsWY7tOI5alrRWuzvt9OC0E9lyPHRZUqyhqgiA4AyABOcBIDiTGN64sz7f79nvXjxixgMIkvjhrvuGO57zPd89nn32vJrpxu622wY7GQN7dvLD7T7b7uABA7sg3ZUkO16S7oJ0F6S7IN3JIvvFdDdmH0XMPY54+bATr6baMT8TscBvD7v+rQ/EHPfyYei81d7Nx3Z0LPfhvFdT3Zh7yPV9Dd13xs/xYrrtY2bKsX33Xu1+7+r/7zWTCjQzEa8KKPjOVgdR/395zNoA4evlNWenfW0GAhvXMDA7i57B9+S3XZ2UNnjvQQqbsgGMOiD5DPuJaR8aVAku9rPTq4MIRuZYgx4G7Zbv3d75/ezpQQBbr3799wXE7zVI+0GZ3wEOWx2U+RngpTqwGkgSlAbq0iBN9eHldIQ2sfkuSOtt+16DFFAATIPTzJXsCXhgQHRIxDQbOmtdb6035FKfZx+2BGhAyvm6H7poYWmfU+7P/0Xd2GXRxWrOew1SwILRZKPG7AVQnj+IeHynGzM3uzF9oxlP7gJgwGQxDUOyLQXM+m+AlPOe3uvG1GQnHlxjH/HwRsSjWyE1g3t7kNRB6t/q13qfP7/XIDXDVaIVpnt8O+LB1Yg7VyJuXoi4fr4pcPEfgE6wrIXtBP7piOnrEdfPtWNytBuT5ztx/UInbl7qCLyvalZ+XjMZNe/1vu/fe5AivlMsA8T7E924drYTY19HTI5GXDnTicnzzZi5HfF8emm31HIgAmzP7kXcG4+YGOrE2JmIieGIiRG2dszcakoFqJgc5uUeRTXYte7VHm83SKdsLcNGL6eK4TGzELOPbfTATMlKWPB8rsRrJxZmOrKy52bwT7bi2f0Qw02MdAXOq2cNqKsjbYGX++jYqUY0xKoplpfbtyXWAT3AvDYaMT7sz+PDEXfGu/FiinPbMfvIOvHzKasI3At9uGekFR8u7G/GbetZ0jhL99ZC8SZIf35HQP5Wg3T+UVvGjV1IVUen/ui9AZRgrVivst4BHKIckCKKe+A8G/p8dbgbtySeiyvqUUfg8SBIXXbpPaoD5/eDlO/3r3ZCYJzhPTzgcG3NPbZzPw0uAJjuLD+/3ykHHPv5Rx2BlnN0rQL66n1X16F36rFvNUjnZlo9Vnn1CAZqq9MR2wJQzWJO4CYLibkeRGEyGy2PbndicrQVsJyB2u0B9vq5Tkxf7+r6C4+78Wq6WYyp5VjU1wbcXM8iHrB2e9e/M9bU/XkmMWHxIgBUGFU6cPEuiFGTcR9ijNkAw7hjcFlKEN1isJRzd5n0zY/MBCMAfHI3ZEHP3LQ1Tac9n6KzO8VZ7+dN9ktGQtymKoDFjYFzdThiUqK+3RPPiOw7VzoCxPwTQFHEcnFh1Vk7Pz+5E3HtbEt6KKC3qO/G2JDBf/tyW54EhUinFwcM+M0DysEAQDz7sCmWxftwbxzGR19ux93xiKlrNvosMSpvxE5lx/U811vNpIBUbqJJdEkbI1jPuHmkp0ontRjORlEnFp8lQKtA62vBmBNDEdekQ5r5zIIR1861Y3qy8ncC7pW2e1cNzKsjZubx4ZaY2czajTuXbVghrtF1EdO5IbZhU/4DoPLXSoQzGBlM1m1hZnRdnvHWZbMq78p75ju/7fu3GqTSIc91AhDYKIkYH4q4cTHi8b0qscO6W7Gai+UMwF9MN3uGFKBGR8TqvvJ1MZhk8Jj1DIS2dFbAd+9qJ+6OdVfc0G+lOhSQcm0YNVWJydF2TF8v0a1HnZ5eyXPVY/o2rhwEYFDeuGCwA1DYlOtd/soDlWMxHDn/bQdnPv9bDVL0MjoeYAIiOgwXD8C4daUpPyRgNEgBpbOMkk0RqfOoBfcjnt6NuH0lGS/3gNZMlYOA79xzbHhB9+Fey20JSj1TPp+AxXMj9ttx82JTQEU14DmswlR6rsW3AcozonLgbWBgWn1om0mHI+6OFYMKkMpr8OZVsgTaZvZvNUjpWNhq8hwd1oorQ/M90Qeo7l9tSFe1BZ06HoxqXfXp7XY8vhFx70rTnT9qhhobiRg72+4BFKYCUIDx2ln7T/ltOXBWv7f0bFcA8mgnro1iNJn52HMtwAqjXj8XceuiAwkYcGkMMbAwoAAvESvEvO49FAIqA8ED1CBFB5cK8y6BNEfqUvvNoL9+bup97NOo8J6RbrEk3asWInwxk8caVDZU+kTYg4jbF7rSH9HJxkcaAoI+D9sI6umQM13peI/vtGVk3L5ktqTDczNLph66/XueA8Ax6NjuTnTiwWTENANpggEJyFsaMDzr1TKoklUfXrdHwe1cudjQb9M1la4uvAV4EQA/g9h+2so7spYsr3ofb+XnPUuBM38b5I0NVLtK8vrsAWsClGPS0q70yLr/cfH5z+50JC6xxm3coPPBWAbe2NeduD4aMlAIc+IOItQpy33ILJYAZb/dIM17533zO8+vdxhtCogYbGypf+bx3vtdr51rKXCQ7Qn7JiArkGbaoPf4Vqs2dzAhSYT/Btn/m7nWtoGUh6yDk880nlwrSga2Mzud1vxXvVjR0QC1XDMFrA9aMnawxBNkiOX8DHD9uRLNBrO/L+7sxcxZXWPx7yuds97/uEdu/edWv+cArAy4/v9QI25caCgpBj3bHoLXXVrSwXusWo6TJCMQkrq7I1mL2//N6rZ7VnKhVCDZ/EP2A5TvCche45WoSTKAxZajL2ZWg9WszEh32BF9LjsufZCIRUQmHZj/VXv7GPuBUf/OsfXvW/W5eqbX74dum4OKvXVdG3Och+6MUcZnLH78vLQlojpB5rbyoE6WTLadnSpqAMGJnLLyqGUvww5yYe3JEbTUfhAgXQqcvcbCBUQYsMeqHUVyAGnzScWkvkZd7OPftA+RrCXAmJ1NRyIqAWkaMHWAYbAAZANgeZbkevXztvJzPnv/PW29V4OMZ/Bvft8EKQBmMN6fcCSKNm09c/tZnOPVSNFu9xTf50pEjlTCXvogLizN8arafxA42Mw1tlTcLwVQfkuQojcRPSFaxD7BCkgVJiypcdnAvKgZ1cyOCwrDApBWIHIHAtJkGet49ilynEChTKTlQVpdb+uPqYO0DlRLAbN+6qnSVTWAzLIcjwtOg/NsK+6OtZUDK9cb6lQvIpYGKGAtffDQebNEvlCZ8C48upnGlzOyNgOuQZ27LSBNUKZIoZFQM55PGWS3L3eVw4mfkJAjQASYCUg+J0BpfNwziLabl1OkJ0jbRcSbWeynTNGOC6klH6cNEIvN7QTjeu+Ffp1bnUENZL+zpYZBeuUMLrROXB1txp0xt5FcWZnLkN6VkthNYACDkudSGuGIAyFEtJ7d37yKNzCQAoTlts3eJEdsXj9Bii/v2YN23B5rKfZMI+FewQ/4+E5LTvc6QBOkABTfKDmf6GATZ5tikOvnYU9Hi+g0rpffxVLoc7ANTv/i5gHAKU7XC55BHV9nzaWuyfNKGvQZgH4/Swwzq33FXI/3u/h1V/rq5Ll5tSkSx14TBrsH+cMbnbhxESnhe1gatePy100lZj+8uYPEPQr2RjdbkRlvtrhGZOcmkNaykxwFaSu6c0PAMgMISCRLnLO7CP1I7PsIvdPpbCQPI9qJ0acxtFTH7v5WqSekCBKdunmxreQbwMogJwlbiS9nm2JQDxYDnPbDEIWBN0tSgzp/z0YButR5Cc7cp5M4gQYTYvAQUVEj1dLWYDU2GuzG+U7cv9pSVjuhQDKbaFgyfmwQZfpb1SG74Hy9LfAfXyUyhTE5QnDDm1x28hy0e3q7289SCBUAG2FQINvsdTYF0nQV9QM2QQooM6KUoUm+M7GN0Q0g0xqnkRR6LEYAocJqS/Ft8cR5i42l1ztoF7RuqxTnyh9QnkHlwqKNaMvcIACkFJLMqtrO0Es3BVL8nLklUFMFwA1ikNqqTKc9IOV3GgK9UH5NdMYSJWJekeLjxOPPdJU2p4aWNc45BvZqLqRdkNpdJckz0iiRq1YvcuX2s+okXZ28gpGGLPydxKKw8KZAmoBMgPbv0SvTAIJdBdxiYaLzOAcUvclihqQORnWC0kaB/+s3cnzcLoOuNBjTiExVKpmT9k1rnvg/nyWZzjblZZGhu4YKLZsV42s9f1Mg7Qdlfk/wYlHywvXfAaqsfLJ6mP9ztlP8fB2NZFvlBh+fF2+VaFqpc3b/q9oPoGqwFyu+8h2nOtDWpEMdM+qo1TsF0gRjgrB/n64jgMl/qAYwqiz3ma7m6dy80JXybp3Jfr70bybYYM1eY5dpGOiv+f/ufmmJMjbUlJuOgS4QFimlgT/a7Eks2hJpxu9Y/6hm9NdamW6rj9sSJu2B9UmpEAJIyTwvCSUo5QCY/a1LLVmfgNRiPlmgzFHn995/FZPuivulgVkfsAYe7doWWP1ftnPR7WWoOjrHcYRIX01FmbL9DhhOGEA9QOJvfdQMZlJ6FJL7WdXbTJByjg2qdrycIWcyG9C6pxpUlv7qnVDvkN3PG2iv3uCviAEH/8NbXfUNfm2IBBci/YrkZK6Vp6bknCwzbwYLUr2DjQfFsJti0nxwxDhz19kLtCWbSQ/8xP/xgmk48eJYkFOUn7ngJF5FhOQiIXS5egLILig3AEpNfamdJ5DWvpe5YhStAKjzTwuTPojIjCn6N/svCSrdjPyexKVp3wOaUr05kD5pqMqcytQUBkXnXHjs4gnong1Aitin+MGjTjSeOK8UBz2JvFieWJcJUsBX6U/1Btz9PPiBuVh6qQ/KfDEYlT7CC0O/LTwmha+pWa2wJCwLMQFM4vyQjqRksTnEujsCpI9dBkai/FHbor6XE+qX838WF4AVdiWxQQZTcSbjF003FLomGw02+E7ZBfriNs02rlx/dbJgJgNAhWzoR8iIjQorsCxAzWggnhr0WVQD+vjlAMOqm2JSWJO8T0YQI0kPL9Ysop+Rp7nksKt1mgSookslDJrMiXWJv44tQbu4UXdBNsj2qIxPQOqQdP361842NfVm5oZnsgJWAAhzkqByd7wl57+IZdSzJAAux+wYnRQAojAzim5djpgu1UNSFGhUFdcTL0jM3gzKCGZjpmOGPN1Q6WqqW/r1htv9PLiBmlLLxiouvdx8D1iV/oBRyTyDNZnsR1EL94+lHn0C6dCXJF47OaVv0uQmRP+mmBTFmfpIPBwvxGi8cdEV6B5dLw9blGnyP7MuEqHQsbMuN5Ogy+QSWDSZNf/b3Q8OmPW2rEC61PUjJjTjoVNSIkvQRWqY+7o/MIBtQRKLamaVWcCDsPA3BVJGDBlLAtg5z7nRiDqL75OE2o6yxKmWTEIJ4JTTfpR57QXYJVeSBksWdePt/KTkeoe/nZ8zIFIxIwyp9lftgW5QM4Df3DfdCrDUy6rNiJB6xm+j7XhwzfkZgwAo11gRpD2XUl/OqePwzuJ25/jFMkasl3zNvbHUaH2zv6Wq4fnr1smUxqYKIe5Av5M7KlPelAK3hvdTPifpcmWjxtSirc8ltOheJZ9hZ4OfdilGV5lbRlY/Nooji4MJBqwLpAnaBCn+NCUolCpxZsAyEtfQiW+6A8ZHKJVjMVZFtTxwrL4YnGQMZdZQvmMOztTNltrnOfmeBmE1hSXVmrx+Xhu1yVNd3uwgzudefp/k5D3V/UjDJJqIKrgtTJrO2twnSPkOUFn84NYV+zqzU9NKpMGXf7kd0vhlOnAPLGWKCc9Ndb4JZp2WqcPSoc+2VS6HkjlZhmeld1S5HsRm2RCdbHzXdYeY/pJqjQeC/j/blT640rV3xn8GJ89CRhtxf0UZZ7IQ3DYwaYJzuX3l80zG8TyjZISd0ZDLDwjACQPaHeZcS/Qscluti6W1671nBTjNDSMhxfhy+8XvX78G061bLi8psW6/MNe8zHRrfMU1fW/xdZZ/n+0/ziDFWM5EaSr6uSTSG2LSOlhhVUWPqBF6w/qpO9FFv94GJqU0DXppMimdbGZz41McjJms6FlIDVxrTMNuPItovYjozq+8xUJEZ64bjefpX7TzGzcNUzQo9wPAx88YwEwonLwYYnAPkp0EyCWeBZWOHNRruJsMSiJQ+fmNiPt+kFKzHrCiKFMYTCKyNiVh+0f2Eg3ZZ5zUnwnmgkkZUKkXAkzmVzFrtfGkHe3nETHbjZiPsrUj5tsRc93VQco5c92I2Y73eY3ZbnRetmPuSSOe3m95/hZqxZlMRqb2U2PHq0sqTnG2Kcc+U9EVCiXOL8C+KT9pSbfrgVXxeIdDcUdR3zMNCHTTOiB24ucU9zwbz47Sv/AsovsKYEZ057xVAAV0/o//YcoVtz6mzWO7C+3ozLd6IO/Mut4A96e4wyR+Zw2g9Q267W5jgXQEB34p5lGKerwxkMpo6gNpA9cUSxM+aSjRgPKECVKSR7a70dZ7v2sXXVqRlME2wAR0Yr+yb3QCQHXnYU1vOqbRiWBbBaTdRsRr20JEt2ycL5Vhoa3r8RlVggGPirHe99nu41FJMJipfEKtV+Vp9Fa8HlwFlJ4LChAKiHWf6CNuXG3E39kyaaRZ1oWfe9KRvkZoVH4zVvDYhgQRjAysbumUzDEvU3fl6yyLHtgoKlGsov+xeAOlxxeedaL5oiO90eBbhRlXAeVqoF3v/+h26Hue/m3nOSpVSqlKl67IYTuBKiIqHhLKs7981FUFGjw/UgNL/anFuql1VlTE/F0pfiUy2fss3dbegR5IEeH9IE3g9v/eE/clOwa3g1buuOA4PMaIGXVrxdXV8+4cub8AKNMkWO1DMeii352lxqf9oYD43ph16NbLmiivgQ/GxNhhWy+otuJ4GB7xyeoigPPyV1VJnCtnrLcmWNMPi45tVWaL279krDEwqLg9fdOzLfD61J35noVh/+nSn53yVweoDbAlQLoIfHVGrX8uWdpi1JIvSgaUarmXTBobIk5e3sqRnZ3hQVH8tcXviBsJaxkAs5EUwXP2xHoNmFsBroFdE5VjvivWt85aigCTg1ve1e2NDWAjsPq+tSC14ck9rNohSVFV8IBowmWyY6neVwchUiKnENV/r39Opt2zEkumeK/2zFWy+CexGWuO/EISClIE0UCaWzO69SAlFwCA2qvQlnWsGDJO+NGOXDskPJC5s/A0rEeWTreOmS6kncGarwG7Z3h1I5p+RtIh0VcdvrXeynx5yIB3JzcXsLLwxFYShO4nJvVaANwT9sbLIxeUSiTZ9Waw+TMg9FSTij0N2Op7AnVNIHUuaNZ6yr2pHNYlM/vpvU4vu8mNYjGbDbeVDZXGGWC1DuxITkaJcCfxfFjSGDqIcIwTwABIXwNFYVcDePn/lztv0L935ht+RsCKV6E8X+M5FQkbKq2uxXo1c7bk4CocvT3i3hLMVVDoZ5gdNqU0EnaKVil85FqyAA41IAEJ2wrMcle9DlCA2gNpv4hPPZTflbzaK1Ndhbjyd5RffIoUxcLPCIsyoqQjboMLinr4GEbKvKICyohXVSaf4O6E2TPFez8o2/gudxgo83lyX39mPtf1ZLwOBBcIDJDIkqKXdxfLbUeCCgXPcoCUfAMw4GK+nlJCoTnyUFlOHZZlJT82PvP8CdRkT4PToF0RpALodEcKewKy2nv9ShKamS6A+wGAVsq7v28lg+a1KcbF6KVjlDamgdKRRYxYVGfDQGyIy4Z1UgG32e4DacVUCZI3vYc9ZcQVScDzIwkkEXinhomEpHMvnVNl19Mn2U5bt3cGlFS8JCjNtugIF6hh9XS+ujF36xL6a65SvU4mTYC+uN/U9ABcNcRlSR6oT7YC8eSJohvBnPkwPUbdlkaq2BuRT6PwrExpwd/ZfVn5PbuvEPf4Ny366+KzDkb5LaULvnlxr2eF7Yu417PhUy2/pTrQfGG2AgRiVEhjG/zU9HuSU94XwAoDhUAYIB4wPlah85GGaqMS1ROmSii1bkiht1ZM+hRd01ORWd/SII14MGaXh/MFO3HjgqeIoHMQnSEta+tGqK1SGWBFOdfLFktdxlFJzEAvGh9qanVldCFFi+btgK+D7538DKuKZVtB1Ir1A1C9Ln9dVskrxpTVMBuWAAvPR0aLtrIPkXKAOIGce3khRlgcrRsvCKOWyt4QHyoAGFSItUw52cOsv56Fz0zPh2ZN1jtiBNS3rXyhpa9duVTc0IDXei/H89I83+RoV35aGEVx9aJrvpPArL2bwraF9WFZolUAlbVVKxFcSmr2bIbCbNuQZYXHJ/uNPf0lm6VI2duXm3JZWR+taoS9BlLcSyRSiEFLsgiKLxeDwvNlEadsAgk5kdsUW877e19FWwxqPx+ObgG0hTFUDKLGztMxBz1oAGalClg9oR1QeQCIxGwp2S7RLBXARu52qANIObsm8aO6XBLPgXSW8/+6jSuLeS/NjjHOTFMXtqs585vPWoVe7cNCpMutU0YfAEmmS9Dk963c84KViKi/sH2CiBMA2vOBLnR6rhqs30GDYqddDwMKI9D6Na62hlxrZCRNTbIkepXfq7llvYUtDJSt7DuuDVawVaSSlRkQpCeSpshAQrQj6tE9nYPqwiGAdJG4R7zDpHLMF92ANS2pYMFNAAJbvpC/Z+jRumP+N+j9YpCaNWGHZPQ7Y03FimX1AsqSubTTwLSVzyNjsBhSSgnEBzwXKt6QKzrDYgx2pB/9Z9BUxDPofutdr0zWM6u3NJMUKY0RbhGfAHXI1IaSdVJU0MpwImb/uCrNCLJZVwnflnWbAlL0iCLmAUqdXXsPtULu5saOqYoWyIgqKsjEcEuObJzFAgCindQ5xB9Oe4yJmu72Ln+WxMDnmzmvvDft0fSMTc/SbVp/L5a3wpjbkAAEXhInJPUg9bDm8Y3iwvTS7lVMP32miPpF4l4AJR5fz4JiYdRSMpwFFW6cd4YRMx2tU1Q33xj41sbAHgzWQ/WyDJSh0KK3GAhyduM7TF8oRkRJrVNHvetABYykDCZIGai0xSwphs2IV86RVVG4Mq8KVoVNSbbZyr7j2gYoWCFP1vonkSay6JDc6KKwpUV+5cAXQKeqpOk9jacuhZMWPvpA86lBywVJGCCplfnU6Dj4Rdlgs61+SUailO8SRWGAEF1B32L6BgxZARRx35ErRr/TSe86SOvvhxSBTQFpMajwdJDtRfVCpzXaNcXgJ5y61f1nMW+HPvkTYspHjbI0J98NRHCW4h/AJhYXiXss+6U2setj6Lgl8c9NPRLTnbA2RtxoYzASaVBZpsXdhJ5FDqg6o95Ju5+XHZQYlrgUCWGyqJvmT22DCwpfLHow4WuSkMAYC80hpQFlgnC1/aJ80qWAStYTiEfZdbaRgZO6xkYBuNbzJJrwLhQlnHS1jMe/V0y5kUFYZg/g6M/+I+IDeK6MbD2T0neAFIueyCVM6kgSILWoXw2g/L8iSGHSuRmX+iNRwMv8VTMq1wq0jR9nVwmzOmHTe1e70XrVLi6Xd98PuulBSAi4gJuBTfux/ujEuSyfs7WSkH7PqOGdK61eQgks6mrRVehzJbCuCFJS8QiVojMwEnHAOkwKeLZH8UbFYMPfhmVIogh6aD1DKDtid983cJWQUrKnml0ldCAB0fO3KyxqlY2wekspfOkXXQmU/f+tCFIpsKUoKs5XRykyLrz1IE0XBixKom/rZTW1uOcf3IgYfF/OKS45tVsDXd5pdGK4WoBm45JuZSaGXBy67gg7YMgrI1aWfT8gl/q+IkiloxZ3FC4EG06Va2GrXi6vi9HEZ14UXQYWRb96L9xLAxhI8nyUNlMIdcHemu0IidJv6L9p/LInx1dhz7K2wlKAXOq31UFalp5GH/WoKH62bRiJqVKYRQ3ObOxd0d4n2pcAdU8lKnmoDG6y+jFikgi2Z++EdDBEDjJGEwS4FCCX+m1FkOZkO/RRRh/zZ5xoUsr9DTzC1Cc+VMTVSrZAqURfiipU00B2wboCWJtNG5lY+dLjGejO4ZzUjN6+9t6C/oRN5e9GFz7Xjsd3qBW1AZAqj7REnUB4xvFnZ15pHhPhLAwmFdIqDIpTfbOjMJVqR5YcxcJtYePMURGmp6BTSXTBFg3nTg5E5Cs6Y8BragbWsJzioWiNQo4NDwq5vaTj2WgTo5M5X4IKRH6U7NFsRWehG52FCE1R4ZxkOQpQ6HtLkbFeFZQSKZMqM4/uHdFttgwswMXkQb5znVJdJZqrByvUZqXABfe1FOqodNCD8bbcUFVubilwXNofYG22f3UNrlOuhY8WD8PjuxHPyzoLGSa1Q9+hUmyhRWFRVgQRY5apyln4gUya5lMqlHiteYCDRSjnusJqgwQpwFzcKACYyBZ19um8CqRVplOv8xME694DhAJMANuMaD0j5a3Vi4VjoBmsBhvA05QO1XjKkjtEehzt6c42DUSuR0QMl1lWR2m0BFyBGdBwLKmFnEt9KQA8v6DPel8lb7sKSnu+o2tlRGktak8PpEw6rIGUGQtPbpl4DKDS9sofNkkksDYDVHtmfG3Ixz7vTkyeJ6hA/kVXIW7cU6h05Is8v18KSzyoKqC8Ju7rOgEAdRKtq77xwEQtuJlCo1sgHtwoZlVKneOy6DVwmY6szl9htueawQv4Xzl7KuYaZsXZjoAkEJD5PsucolpZnTozwpZzC5X6UYAqIMGGNZZtvoQ9C3DLdQVKjqMoGtdtNCPm5v1ZwPace53H/wwoQF3YdrX3TJBqoPXEvUU/EhOwZARR7Z7sSUGNAdgcEvVlTr5JCMAWZqVW69cmvZ7kPNtRGh+h+BfTzZ7Ougdri7w+EIzDnikYVCNhCRTEPIsxUN6vPqJ4gcG8hK/ja7nAAPeRVU+1kfESXRILMJGulMTBVzoAkCJWURvaL1oRTRI1DMgmOZp9tZ7oaIPVYlP3Byyzs2bMhYjmy6ZZH+ALUOECaNyjaZC2stAZg6En/lNnLKpHSRTpFAYW88LMsG0BqUC9iuRItk2QanCXPFuuSYhZIO1lRBVGzU2ckgoAACAASURBVBLjmyWhnqgv4JS0rPocGwf/NxsYoDoL7Av+NCU6p48gTqnkRiFUnPWwl5JJhhtKQqiPBtP14OL2dV00R1MPpEXUq2GTBXCnwFalUMJqTLLa/3RiF2DOOnSX0y4oLPFoCgA7iRhGYmvPurCY5xUl+zkDHn19gmAHpX+onDLaUYx8kvpYFzoxfr4VszBmqx3d2QVnL2kGK3PrG0rcvjkWcYO5Zec7qr7CNODeO0gVKPecLyrFqiB1tn4OKLVlrwCbiQgDCj+0SSjBNBjDWPqu2DmvbxUxSY49+GLDc4SKwW+8dz1sukdL3BB2lM7gh5QoH8rsfDtkeYlMNvYLVczn7+vXUReD1P5XP4cjTKgeMB3AFCuUCEqv41bppNWO6zZmZZS9mI747vEzcfqjX8aJfaNx+sD1+PPvs1iqjaQ0gPwMMGLTvtpXuHQifvej0Tjy4Vdx8vCl+OSb5+PkwZtxdO9EnDw4Gke+ORKnD12JY3vPx+cfnY1//6d3NVmOgdFqvfS0l2YE7P3jP74WRw58GUf2/iZO7h+OX/3DbCy8YGBQ47RsDCzuz2DdwPvbM+JzkaAkniQ4UiSLjAZiGGeapROtAWIdoODGIKWGVxpYoXXBkPCpeu5hVTMOVMZKrZaQKhBrbSYzZw/ERblOx/5GAZrn8dD52X5YZ/0zI1XzlgAmIip1QfTSYpRspJPq52BAoO/94m9acWTvb+P4R7+OE4eH4+SBu3Hy4Hkp8xyfU4d5BuWrLhSxjuHTasbxDy7EiQNn4/THV+Looa/j1EeX4/ihoTh+aCROHroapw5MxKkDY3Hq4MX41v/w3+Ozj38Vf/XjYm2jLTyZj/ZCI/78f7kZxw9djs8/vh2nD1yML/66GR3euxkRPOur8u7FpVR/l/V8TjUAw/j2pQQp6wDktBynRGa/bHRvwymBaoBCTHZjQmr+rdp3g1X4SMV8DaQCHHSr2XwYRi3ljmZ817TccbIA6Vdl9bONPnz9PF/bQBXls0reuXZQ6xS2UeOnawjmaLat9w1AJ4WdYLDfOzkRJ/bfimMf/TqOf3Q2ju2/HMcODscX/+1BNBHRzXln+6swQyeiVZ4NXXO+E599OBWfHboWn354OU589GUc3z8Sxw/+Sxw7eDaOH/gqjh/4Oo7tOxMnDgyLbY/svxQnProYf/MXjyMwrmYbGng/+v50HDk4FMcPjMexvV/Gz3/KAHESMyDVIJHq07UrajUmrU9GBNjaKhWCQcp8I4OkH6QVedT7az2fkzmTob1PiWujLUkKvfTOmOc+4ZaqJ6DsYVopNduhW1EuICwbF6j8aFy0duE+Y2o9D5/HShcqsxkROXxXyG7I1S3Www5LHgvjIhZ7ycCenGffJsZKK65e7MbR/eckmo/tOxvH9t2LY9/6pzj+wdX43Y8nY+F58YXO2xUGaPCDooa0pA5EnPzwRpza+6s4fvi3cXLvWPzJd6fjx3/Qin/7/ZvxF3/SjR//ydM4+a3fxvGDl+KTb0zG59+6KSDCrJfOFv/nXDd++L3nceLwuTh5CGBfif/+t8XFxX00RaaI+A2K+v42glFxrqvtVfTM1raBMziQJhCpNMNn0vfAEtltTG8hAsaaBIAzdVGml7ycWVCC9J7p621Z8FSfk9gfKpa8WNWUnCNtEUh7roUcGevfA0rXLrLI6X0fKhlPqzHFKv9LLWjiJkKHKx2uDk5gRPwff/ZKYvnEvsvx6TeH4tS3huI7H34ZJ/efjRMHz8QvftqxoVZ8lmJ3pcAVZ/tCM47tHxdLfvLR13Hi4Jcxfr7bq/A896xtx34j4tf/0Irj+76KYx9e1HEnDpyLv/zzJ5YYjW784PeexsnDV8y6hy5uC0if3C0g1UyLwYJUJFcrB2oV0X3Nkjr4RbHkn95zTN9znOrpe+1YmInYw2xRXE9kqGDlX7/YEJuhgwLKNJY8GjxnuwLt+oGZLKq9rLniyC+6il5kyFNd+0f+er+nm6qn06bLp9GUI/3xvU6cPnw+jh7E2BkRgP6vv3gpnfTYh5dlxPzBZ5PRJrKE6iHXV2HnAnqMqiN7L8apj8/GsY8n48g3zsW1C91oU0FaorwMDuYdzUX8/X+Zj+MHfhGn0H0Pno//8TvjPbXmh3/wKE4cmIxj+6wWbAeTkimfTEe/ymiSnbB5JnVfO2vOot+eEET79A0D07qn+xufeKbyaf/QE/b2ZHyeg6FbnPcPrrEuqPNHewZTz2fGw6fCO0CQStflem1NEqMax3pB2X98hwUU5Iiv+RjlC7Ub62//41x8dngsPkHMH7gYf/0XC/HgVsTxfRdk+Bw7cC5OHPxa4WCFJtEPa+oDoU/E8Im9V+PEvpE4emg4Tu77Oq6M2tATk+MvbXjFksarhbgx3oqjB4bi0wPjcfrQJemsMmRmu/HjP74fR745KQbnebYapLQXYtWMl4ZNIY2+COAiculhYS393w9SpstHPIE9S7nyFPFpzees0ZxiYpCyYMOjThAiVQwV85+yjhNlwpaKT3lk2QIf1CjLhvH15MQnm3t4MBWZpcdhLMgf6hAkeQCwIquM/OtPL8a3v/GLOPnxJemL1y7Y2v/rn4QMJ/RCwPIf/nQ22s3ifGdmZon8tOY6MpyOfzgRx/cOy+j67OBwjJ1LK9whVxVOw+X0KmLoV/Nx4uBEHDt8PU7svxinDg/ZvTaLC+puHN17LU4eOhPHD17YFpCSFSWWK8Qjo7k43TcOTIM3pS977mHsuKbDU+mfAHX57dWjhojTlZ4LSAHqq+mmLCvAis7gWaLWVXjoQYOUayY4vfcCXP2suJHvWvlDRSMAVldV9sRaLfTDebHokf1fxKlDN+K7p8ei1WhrfSUa9fjB8wIubPo7H0/E9J3iSAegaXGX2vpH912SXnv08PU49s0LWjAMd5ETSHDWM1CIyUf85I8m4vj+38gthU76/d+57+vNR0jcH7waR/f9VtfbDiZFXZGrKKWjDGJLy82CFKzYjrEP3KD1NKQn98uEPCbl5VYDLPnDYJBK4gKpZoWWqaRQLrNDEQOI/kksMqIGJSrBjdFTfcO10P1Kx9QZNIMDvtdGQNl/DuJW0aHiV0VHBLivnkV877Mx6X+f7v1lnDx8MX7+9y35KrPc4nc/u26L/+BwfLpvKH72n5ol9m6DSToqYG114tThyTi+fzQ+OXwmPvt4JMbOOROKAdGaa+qetyba8Zd/9jw+/eDXEvNHvjkqsf7//lXT2VILnfi3v/8iTn88Hkf3faln2g6Qorcr7J2FHAYIUjCiAVB03AqkEU/ue+0n132q2HSRqJ/ySje9mvk6mIzpJ1ZeASqW1+S5hpJJ5Nwv4StA6lGyEgBX/y+BLqs+54GXASGf3irWez8o+79LJyRpA4MJoAo0nbgx0YxPPjgTRw+MxGeHJuLIvvPxDH8oqoGMnW588bOQK+jYvkkx6u9+eyjm0ZPn0XOdR9BqdOXHPL3vVpz88Ldx8uPhOPbB5Tj50aj12gNfxakDV6U6ECQ4svdKfPbRnThx6LKu+TvfGYrpeyVYMN+OH31/Vn7UY/txQU1subiXVGl0gtLx9AG2hvM0BsOkjmRlxLLYMcOujIO4V8ZdSQ3tF/swKUkw4HIPUQdmhM4/7AbrMmHys5FTqnlNVGfLFyijLQtQbVYcqFGkhLtmpr87RW8QIFVGEf5MgCejZ17G2L/7k2dx8vBkfHb4siJNv/fZpfj5z7rx879rxD//TcTP/zbib/9TN07tvyCG/NaHv47T3x6OL//JMXx1LgOIRJL5iBPfvBynDpwPGVqHLsqZjygHrJ/u/22c+viCdFs5+w+Oxaf7fy0X1NAXC1YF2s58+skfPYljHw5JZyUIsNVMKq/Hgi16AjSQRqpeAGyz/VsnMq5P/xJy16Q8GU42npxLajaFJGFTVIBcH2wPP/Cl9cx5fCSbYkAxUxRxj//UtF3FVgHpZl+A8/O6YtResYIBgrQesSpM+vhWxOmPfhWf7h2P4/uvx6nD12SkOJQ5qrDokf1nZN1/dnBcrHf625fikw+H4/dPX4pOY26R16E1146TB87EJ/t+E8cOXYjPv30nThy8Gsf3XokjH/x/cWLvOYU4T+ydjN/56Foc2/9l/P7nl+PicISynBg3ZTHdP//De/LPnjx0TVb/loOUqF3DIMWLA6gAKcZTD6zrsuSXwkUax/Ya0NfXzzdVb2zuSUsVcsjAY3VnDCXyCdio84V77OGtbuwhRs5KZj1FlWpmU67PI3E/6hHGCwhMpUKbPy/1UGv/jWuojA46y7nqPEbbYJjUXgIlZBCDn434x//ciO988C9x/NBEHD38pd1Ph87H0QNjcsqfOjyh5BBUAKxvAPPJ3nMypH7no4vyIaNWJAs15yM+P4zbaCxOHL4a3/rGcJw4xCD4WZz8aEwsynX++F9dj//zz6bjzD81bVC9pLDafFB2U/mirVb84Hu34+S+ixL1gHk7QIpUSMJJkMoNWMupyP/Xu7evvbLqk5iIMjElCaPIM0HMos+nXKN07lHEzC375P/Dn92MPf/4X58F3n9oFgPq1RQL2tolNXOThIOmk5zLkttQdoJ1vQ/df/yKIN2kPir9FNcTYp6tQZgt4t98ckmJHkR2jhz4lcSwxPThs/Hp3pE4fmhURguO9uP7fxU49T//9piY9Ojer+M//8BJHwBeCdONiJOct++cLPbTh7+Wjsf9yR1VIKAxJ90VHdkZTE4W0TOi37acl/qD792Nzw5e0mAhRLvVIIVFaZskHPbJpJUqVpFHf/+t7bv1W8R9BgpYDAQpTXKzxXs3XlGr9GEzGk/n4/ndiHM/78Rf/vBG/OB7Z2MPbiZ8ZTqAKSQznZh9EMHitlyIZRCtr2RkIum7GoFre9ilXpZr+bpaHKzUQRWTDgCkssCJLs1hZbdj6Jed+OSD3wb6InH0kwe/jH/8bwvxxf/TiH/+aTN+8bNm/OKnEV/8dTd++dOIX/5dM/7d//pA4VKBev9wnD40FDO3ynQWwL8QcfyDc2JdUvKOfviF2kzup+JPZTlyJTiTyU82k1QPUvCIYnV6Ea2f/PHDOHVgJI7tH4sT+89vOUix7GmjBGRFPllbYak+W/tvXC+vWQep5jqNWx8lsoR4ny318pHiWh/stvH1N//xmcOiUG6b+UyUgX7QjWZZ5JYs/Rtl/U6FK4uTtxILa3/gpYHsl9AIZgU7gdQ6ac842QRYdQ2YShn0Ef/bd29LLMOWZCT91x/OGCDzRS0oWUNOrGa574jZF604RWbS/qE4efB6HN13JX7+f0c0Zx3/b8w3FeI8cgAWnojTh0fj6jlnLwEA8k0FxhbzppyBj8HVSeDimy1s/8M/eBxHPxhVet+x/b/ZcpDyXAweA6mez0u65OZJKAlICSyFgLiuGHW0GbcvexlyEu8zHMricI40tbVEE5GpPfgO5x814yUugbLKXUadsO4pNpX1fPLBbd1v/iW4Xo42mNRAtjM/mUcicYNAFVNglMyF4umIa5JB0DeJ9FDtDfHbWfAUEIdQHaGSvvgS3+hC/JcfPZMhc/KjCZ3/b45clu+TZ0MnPY2hdPBqHDtwLU58NBRjo44uye1VPABEnZTZT2Y+79MsjLrQCcK3XOvHf/gqPj80EZ9/ezw++fCftxykDGIqFLpfK7AOSidlJRT1bw3weIpQKSSdR6tpSeipTFkCpBSlIyvq5VQjXj2I2OP4aUvTF6ie93RqIZ4+6Kqm5a1LjRg/40RY2HPgIC0uLY3knuFkZ77KO24QnAlsi1UA04q/+skL+THJ4yQh5E//5+kidmE6s2Ie7zBmmWH50ssBkRH1yYF/ieOHL8TnB+/HV/9g3ysD4cgHX9tAOsS1v9BUHNUGJfsKtiKoABCVbkfCSakjyvuhpyrPsxU/+sMncWzvb+Poga+Vzb/VOikgbTy3aygJw0QxmOkj1LBV39bdWfR5ISdS9kgPZaFiRaZwdZ5x0eZHt1sxN8VM5hJxgmpJLmEp6DvjTDM1my0tojcr4hefX3+JdCozIF48LLM0C1BlTZekXYnxIpoTkEvtM5P9/o2Io/v/Lk7tuxafH7gX3/nGL+LMz6tlG5c6l98ALWFDEp//9+99GZ988EWcPnguTu4fjz/9n0gibsgHe3z/38fxD0fj1P4rcergL+Vicc7qKkkyiPk5rPsFqQU/+qMrUkOO7B9WXulvfjbtmaQkes/bx6vngp2ZUrKZQVyqmmBM4sCH4TRtiLltAypoZhUx1QgzKINBmXUU8sVTVArSsbaU1oQdctnyl/dDhi6ifw9KK0mnzAol4RgfmYBTE8V892+LAbZZEHNNMXRh1AQpvxORgKWyIxZ/XqXzE9jofi/bsp4br1oS0RhQqilFJGqVTmYOfnd2TmBceGZQt8vMT8X5sfAX2tF42VECChEo2HL+6domytm4ssjlWdBzyfQnmbrBtQlC4CV4RSZVMb6KseY5+2trh5Xek3aGxQApUcUU0TkrYzN9jO6ZFn0yNX2bvyOlxaDcH0ldYv2omaSQuhJ0O5T0jAUPBU/qoOJkXwKk3IBtMw/ef64eusyl0gMLsJ2Yub18B9QBu1IHqIOfdVVeXccpnGnga3LdKiAViDC6Xsw7rPqKacswX1lxr0wMTDVBRhIg0tTr1Zna4VVXJcED4JS+MniUbzAXzedzEsk8f++ZS2BitXdfy/9IT/cJIO2aTWG7s5lLsXFiMiAX48UYKkkthZz4TYNCakFbiU1I91y2fg+Tnlj2UPoBIC3TQjSyCih94crI6QfaRr8jVlLX5R7ZWLA5y/R4lmi35zhfS6PXj1HJQ4Co+eplXtCcK7PIqFkFpEpISdFaL6mDlY4PNucbCfwYP2RIWRTLCFvl+vLfcjzXA/Cv2kqWdvZUOzqvioiXvxeWbkgKqE4A56x2/dX+n4u4M56WvBkOEUzfDwKk9rlmvxrsFZaqOXPue47z9CHcooAUdyiMuidDnwnKBKnnoSweRdUNFt94oyA11dezqor4H2lr3XSYCdbM6I6AgQqwxnn3ONNxA8lfCqCY3Qmg0DVL4YUVO1pGD857l8cRKDmPcCt7GULFCHrZiXjl+VQqq7MGnVnPstDqATOZVfeBLcumd2AhsQWqpZTfi9hf8flXASnsffNiszenDTF8rcw1yyXJN963YMc4gYjIxuc7OOM+Y5qm1Nb0Ieo9UE2FqnvMuZNl/9CLi8xORewhPJVzr51UkEDhJktTfoJ1cy/g63Mt6y1VbBfdlJciyUCiVOV1HB2RqM/vq3QC7iW5fRDZLyvA0um67irnq5JJEa06HmP9BfUTrYsqDRCWI3c0jwO8CaRVrt96XumueiZmEiy0o82gWEC5LdfiOtyToASzRhPAq1x/JQDTjgCAVMyceKl+UOweqZlqwGKiWl+fu285R/1cVnW+e8UJ9dR8IKrJHCfWDsN4JwoFi5JPoirjMCk/UjBKeqnWo8Rwss5gcewb1B9uUCBVFnhxT6hRtCSOVQ5GH7kDYsEEJYCQK2eNc+9hvFmqnrimEp2WKkCviNhaOhqQY4TVilTwHRDpes2u9EUZafg9qUgNY6927RJE4Dg9Y86l0tRpWBm1Ar+qp3FzP7XHGgfBcveXdJrvxqPrjiiyGklWTASoCap6n2/kMzjhPPVzqSPGmmAQIwSE0Y71ruTmaZeDJDWPDDwn3zMpr+2IEw5U0Pz4jn2CzEFBN8F/BaMB1rxhvkD9+0ZewOe0y5RpdFOXHpSOSsGsEXsdXK+p1ICic4pPcS1MqNzQwmwCgQBO0nLNT7kikKhkV1iS4xad5995DjEqLitlFRFZqjHgitcvkS55MUomvyqVtKp59UX3THCavUlSWcMgWObeCdL7V7DmmyoBqTJBZcZwqmEb71ezb2ZSQUDgiP2tSy0V0iXLSSl5Wat0yoswE1BS6UcATKHdR63XVx8Bxbm9ut+JF/ebKnuCPkGFC1wFAEmg2nQa18qi5MY50770MAAqxillydfCVMt00nIM8y7+jsqjAc3AKZMC+Q6DbRaEq52v9aIkKS32YWmkoyvm+Rl4jqU2Z+iXVZoBJOhdaiPJhN+doW+QAlQrxEvrq6s9+Hr+xyVC8QKBVExVmHQXfKurErX26kmdwsp8JwS5nr7YyLH9IMVxj6HuFZmXBmcdsDl79LX6pHWwko1CAjQ6xA0KWxXmHJROmtdbbo8FyNTqrAkl67dZgfZdZL5BvpPUj9RjCTQoK8vGF7Hy5dp9oL8XJuWaFM3FBkLPxDiqA3Kpzz2Q1ifh8VnABJxlph4WFgH/W5cr0bxdIEWHQbXA6qPzpEvJkc7n5Z39g+zot/pa6O/ysaIj47+1b5X23J61RU1sxksnWExZWffrBWmdOV/7XObiox9MT9qQsj6aU0kq4A509BXG5l4o38z/l18zQ4MDrKz3VoNwDWqPRD1+ZXTS0n73xgDP9jBpegsYFK47CoPaSb8Ue9Z/W5ZJ60ClugninoOJp7peFLqM6+dvBTDr12QE8pKAlYfvuWDKqnjvOsA2+35IHrvwyiqCxWByYbrtACn954jW5GhXtg1YYh6dY/PLi/xFhlMdlP2fEf/8ZpFfnP6MQEKnJc5fB9WgP9tIs6H24GpElt7ZFfVrU3VoJ6lIuNGYmPq0WhEvGW7QfVa/HiQDVtjj0sRhL3102riqs2b/5zWDNEHbeNLVcntECuR0P9twQsAWu6BIhE71AhbPVfFsSA0gdr0GcblZNnuT53swMxMYt11b+iCZTpRcXCrsXQfYID4nSPEG4ampgxQC7Acm/cvG70uDNEvtFLdTsihJp2SjaAbfDZdqTINmEC+y8jXSJ+ualvcm2o7wJEP0fKe5Socz3NU574Fhhb4ptixRuN6AKAEPwqedl6T5OSeWXOGqsMfWi3uzte0XyAbbAsOJCFMWyU39FEJMzKEOUEGnp5OKLcsaTuifHMiGdc+sUXQHhapYqfluR+vvZKLAygAbjFGVmTSMStgUn60ZwrX0leRRZ8RMn3sPQCpQlkQWiXUGbwEu/2XiNe0Fi5E0kjq+fd2D6aPlcECf5YYdc50K3uNMD0mmtL2TlUykWgpv1ZwngLpHQfwZpjF3e0hOBz97AItPC+RPTbZciRnfV4m5L/eAg/jdI9E1UolwkUHDvCQKCThn0ws+JGiTSXoh0Dp438HPALN657JqYAGqQEoOgco7ku3kdpQUPFeFowfRT8tdg/7iv7rkJamapXkgG1xhiHaBFEmuyjn+bZG4z/qkotpHmXni0KhOeuwy0fcnMvfTcXbpplutkw5TIzWXcPGoRJdifan6HChAKUaVGlCmnawxnS87+W3cmz29ppUGao9VbTDxTsxrR00SWFTYA/Yc0BymVfvfE+6SvcnHQDKCHdLy6Een5dXrQi0B0mRNAElFiZczzZ4+gO5AWJKppypYplSrrtm0NgNwuZE0iN/TcMqXQ3yQrPDoTiX2nXSCXppO//ckfLpEzmpv1gDBjznKd7KiB25DtxvtR1tuh5/U+R22J2yo1cT/MGmCXeWFwKh1HNqg6tNJUw9FWZ1jzv0Tp1IRZyWUtWix25IUC3gGAcKVrsFLXvkqk1mK2EdUFaCir2TyMp2j3NEi1uui8G1kyTU9c5EcOpYAB9E4jCjaYN6LY1AtpJfQjvsQ6x5dcRT/5VbrpKWgSMEMjNrTUfntTDfujjmHtA5SRH29+vOexX+2e5WemVZCMnReWKuCkBvI1IIzOQ11618Sa9Q6TRbbBaSu9IcSTl5i5pxK7L+DuueygFWubKWXCqAszjZrPyRpcfgnAaYZ1I51gbQ3XWfr+tA2RcWeCVD26ZbC/y2Lf6YtNp0lPU8grS+AWxRWxD2OVkQ8CSXXzy8IoNInEBFK+2/Juhdgt8NwGoq4ccm1qDRR8FxONbH/dOzrlvQanNTKXCfCUqovv2b1v4vgTSbt6aKuFYAkfDCxUCSgQWK1yYBMj8mWM2lRCZlpUakXfp6Jc22RYM5nwhjW8uG91L06SPvS9BD9zHmeuZ7KtVFfn1oiS5upzwlU7bl5x1Y/I3ekqk6xVY1BKhijkoUoqLMqxsEFQ6IzoCwL5Sp+XUCqpOEy1WNZhtohgJY7iWctz9OvwliClATrkpDNWgAsy82g3qp2z+uOjyx47S8qkgyb1MSQI23pm6xmw6wPbx0VxjN2OpLGd8ddEx/mfD7VKCLehhMepcV+0gQq/lJcTtMRT293Y/K8qwC7YJnFhtwKBRxXvkLHYfFSZ+6nQg5wxr7ahkZSXLgdTEnAUuTFNGOz0fVcIDoXlimWfq/TNUeorOW0QwCZQFy0rxlGacn3/sdh30QPZ/ZAyWt44aWO0h+aYNq6vQubgYkrZ5yfCgYwiHDc5xQRxDnGERKaHBBI5d5Vz2/iGIO01YtAVVGnkvSMmO9tBaQS/VMRdy6VqhZDHfknqQslUJ5tCRgYVTyQ9dV2Wb+8ZaexVj3bOn2Hhr86SlzY+qkYddIVAgXM2bJoLiBMkKYPUez0FoRV0xhixmw9OKGIEtX4vKIKRhIiXrW7mFhXqjZvHTjdr7S5mBFVsFc7oRsYa0xHguwc4nS922RHW+8Gcf6GH97H+pyMSMmZXwcoTtW6Ux994f7VVjy41lRGNTfOqmforoyO++MGMtkuPDR0L2NrG8QNDYSuxWzHKyOduHo+4sGkw26s+MHCtYtEZOncxXOVKnHaY6kdxK4CJwCtgzSfr2Tao5NjgOCFoR/kedkG74v72saY1YvKrZThTiKWaZwnIFOM853jeqDtxewrUd8DqYBZyj0C2vwOEKFiNt8glGiCBcbG6KU8pL0AVb7pla9DhWS3eiT3rFbY42w7LhPhGHaHMY/G/lODEMtf+ihAXa7Ts/N30r48q1SVUoOgPvAQpST+INEwTrbLKMq+tffFtgH3xqduIrPqqCBRkdb19DyeG0O9royfjAAAFBtJREFUn0EBbD+YNX0kQfk6q8Ks1NDvlurPrgKtmP5Mw/OinziZ1dZ/9bBZZCJfZiv2FjGuYcWoxjUGi1NogNpW6Dta1AHdrpS+WZGZdhI4ccYXn6f0UflAGXgtiX6Mpqf3KKZQltasuZnS9bMVbV6/pmyPnlrnqBauS8AnsLHUknJHa5M7a4THXCf7Q02EZlWYlWvwW9FJewCtuaIEVhz7Je8vRwO0zfEkonjiPp8dNnVj8aDOXKq/zNZ99qCQmlHzMKSeyioX6GkwvtgzDRF00iIqd6KIz2eqM6akQlnbFAmHBJNDvuRrIkEYpJADC8T1PC9b6rC3cSz17mzE7THXF1UGEzH5mr2TgKvvE4wysJSiB0BbNXZdBqQAUqCUfura+f1AzmME1jK5/+n9luKxNBbO4rT2tg6gXYl42JSaluhjJC+wKJpYnaiKnqWlqoGIEHU6tUgXzZ/fuTopbJkeCSQAPmAAiv6p5d/RO0thhyxCLH8yBs3Q1keUUpIh5tGDKTKXLPoK/ZIy47naXc2IMlAL287Ymc9KI5wLwBO8CegVZ4vWR8JSn0nne/mApBQ7Xmk8dCOYTMr7lo7iNXgOzjdcUpAFri54DQBVr0Os1/yPyVy513KPRG5UsaSK6OT/a96voPtq3VMKnLGkIwGIUrMKMDKYpD/D9sUjIev9FvWS2qo2Mr4NhulqBIPByqCAIDCw00CCGe1aMhMCtrpxlJ8ThKvtNwVSMarEv+fuE+vH/cDL2dJfA5C2EMia963ro7eZZW9fcqyYEo6ZmFLtK1aV7gqYi4ogvVAVSvBPekW86jyysF7fMmXQ4crX/3fF5zIICjgX6cyUnXpudw5+RxJrEK1M9R4bJYrzZttX1r3qmnY1URP2TL1ysfGTOqfdS9sKUqy15lMvTgbTcnMctQDUyvubbcQxvAwYFKMOONCobJQRwplMCRdAoMhNmTItYJU8zfzcA2gaVulvze/L7vHFVuDM65gtS3U+VRYhnFlNOeZ5SJwhOZgCxyQL055SbVQ31sbhTgCpBv9IW67IZ2WVO0Q2IDVgFwMzAcp+NQbN/wfApM5BTT2V1DDPKjWjvsmGpKRgGlXoyVmPKOPI1Lq6O2ErmXAiIJKBRWiV6nXp/in64GLQVqy7rPgXAK1aJDBzr3MU+aquAzjl1rvXianrrixYDXgn1lhCebC9ybb1vSEBsv1bCvZklAm/LQaQ2XQxi+Y8JvYJwtX2mwIpln3qIZr6jHO/jHwU+jfdiBmuTQaFjS4Pt+X4V2XhUjAY/RlfLzo1AQrrrRRJK1GpFO91xuyJ50w6fn2fIF8KxBLrjY7CmgwQ/IYET6jYwiCXdV48Fjw/4DRALZ3qn99UO/sZ8OjYPwsJ8A7pV68DMhl0sd99bUDdFEjxl2K9yRsw44x5VnUm8cCi6c2Ke4IK8jaUAmtKgBnpBrrqFeLNqAPoVMVthuuGaRakAOK6Qmz11AFYtYC0J7Zh3NU2gXnxuYCf3FcGBNMoqOxB/gFg5HnUdmWQS8zX8zCLvr8TDNMcKLRrfrbbr6OJmwnMpfdVUvOWMil0jkuEfRpNbtSdIY4ybKqQHZ1eXCV0MI2ae/RWIifseX6YKf9Hf707HjF1gym5do9Q4DUXekjgLrUHiExz0WrD067LSSWYO2P2Nrhji97MQCnPxP0zvMkxfpZSHlP/+Zw3xaB5X55LOv+ituxooOPH7QdnsuhqoOz/f1NMyk3nn1KEqqt0LDmRMU7o9AEsDJCNsdE9Il1z98nmVya6oyJcTz7V16xj5wHovJIUnCDJZyCJGFG8ls3HdmNiqOOtd78EmUVl6sjcw4Mkxburxeh5CxCoI6qVOnrrXr1JaWUyoojHlRHnDMglhSE1VmU11cHaD8C1fN8USNPpikVPQ6tDS3gSESC9b8Qpf5nZLzE1GnGpOJs5x51UrWfJ6NwJ4iyB+a7ukwmRIqn3ekDg564VNVaVZmecyQ02WhJ6ikpy5YzdYXaRkbexIJWpAmc66Nemg/YDd1MghUlJsCVWrpdLBb/Mn+Ghs4MNRut/PTbo86cmMHFrpNjN83f3g2fMuppTB6n6kpzgXsqfiQSjbuq6M83wihC4YZKf+grpUqQoKZwYUBVIq8/9AFzL902BFF0UizitaFG9dKiSoV90K5gy9cNsGI/iTJStFqVKoO6CdPCg7B/o9EWC0yRSqRsy4kqxMf4jCOICuPZEUGeU7ySbsxQ9x2OIIkHRu8mSWwqk9d/WAlCO2RRIs+45OZwJOl4c6xQWxU+J5cpDs+mFmEdfe3k3TupoNlj4zb9vfUf1d9z79T1130riJYtmH7AniogXgoANIXCmvvMZSZoZ9/Tv3bGugjmk6mUMvw7K/s/bAlIctrhoeFCK7JIpD2Pic6SYBCONUFl6AHhIXpY0OhoD1qw3hgDeW3K6MnLeL+Bs38Bc3N6VRyP7BLK5dTli5hbJIE6Ixy+O29Eg5ffKaQ8O8PciYfm9H5T937cFpCSYOJHV7hlYE/FPnqOzWgxQFzybj8YTl6HGB+ly2MTUy2zQWla/QbkL0q0enKhUqVYlMLlnRpEgHDvnu4sYVH0+ZaBqhqfyPp3ADEDBRYbJ+4FZ/76tIGXaCQ+HnkL2C6G9enqf6021lDjdpChvYVRKrTDdFaDWG6n+eas76n2+fgY3aO+0BegLclLpGxYDgxnpT/rQ1e4s5okmwaiZbU//swG8BHEdkEt93haQzk03o/ms5fr6gJMITRlFvJCr8rnoWf6eYVQeGkalMXruq+KbBDg03PsMoO149wRpGk/s6QtEvCNuJcRZwGh27GiJG6JxfGcDlAnCzMQnCpm/LbffFpDmQ25m//ROK66f69g5Xnym8qmWimzb0Vnv7D2URldm/JZAgfXQKlLEd027oc4XBuuw1xsFWBnupn/NkgDPPk+WfFwryDZ73Kas+82AM88lexuxIp+q5ulUYcl3Fjy9yNNWG0l2DZkhX/ecwKSLVatQZIxFcaW2wZQwpgramlV7INV8+Y0559cL2jcKUkQ/oxX95vqFVs91RQSEktm7IN0ciAGgmJKE7yVUKLsCDV4+ZxAFo5bYOzon7qZ0Jzn2npPq3hMmlUGlCtLtuEb2VBE5mia7DVXf3odBYAvejGo9P33S6Yv2vm7lo37hpXn5ACC2eyCFXRH7YtfabM71MuN6j3+jTKoGeGgnMAkgGvk9XXTXcNrsIKpcTAWQJdBCAhBtLT91yb7iu7acvXDeS3zDnp4cV81bglxQ19YLto0e/0ZByqhErKCPupE6JbRW4sBqsBR5iKy673QXxKuBONkRndRi32FPMsCUBSYRT0aYmVbpiiWfFR8pi4NVznkMJgMzPTQbBd16z3ujIOVhESu9UVySFfhuZd9A5Ltj/3XX1C5IVwMpbei2tIOeVEoqjJDUfXccr0om8gBiJvi1pXIBaNqbcChFxuinzHjjc9oS6wXbRo9/oyDFYKIh7K8z6GgcxBEOZRqLjkAswbZs6XTO/1bvqGTi93BfxLra8GxLVZWRXARTYMiH1z0p0W1qKZXtS/uT4ZTTQeogxRf6zoh7Rg4iPTf0m7pjd4alILHqKbKKvy5T/QqToqfeu+rRzMxJlr9m5QrYgYybBG8CFQuV/wDwuwDi6j2qd/J7+d35zMDVNJh895Lco4FORZMhZ8rTdhg+mUfhvuhoYQWqz6jY2RmLfgOVGQkt5VpwHiD1OvUObW+UFTdy3pYyaQVO+9PqAOUzWVGTJWM+WTI7gdqo0zcdaqVBETGvprpqVJJXiFRdOWM3FY1aX+oc0cX1Erxv855Bx8Y7svGZ90l9Ewe8dc5qZmx6RxDnzODUVI5pu/pcIMxhbNiUfiAxRHnBDP6vKOfZ1oRKiEEWvcgFkGLp05c+byOA28g5Ww5SHiodwP0gJQmF2aVkTdH4qmU00o3bVzLzJlkYh3K7OJU9XYVVUe5cBuTtyMxwAM516MDszLcdoHVA8tmqURqRXqiB3wTMortjYN672lH2EkBkNUMIg35Io4dQpjdLO46DNKizTzUSr0vv8xKU9B+fVQTiXXHm0zAVSHP0ec8Lk4SCXkqcmEXEmBMES9JAnEuD5pYx4YxU0cDP7xc2PteQDktHWVTZUHibAZrgZMDllu/DAPSWBSN4X6sESCAmDj4rKXMJTliQtiR4wqbPj7t21k/xX6nbxAJgDzKLySFQk0wBaMkjNWDfgYhTfQT2RmFNL6VhrIB70alHtztS6HVeyVlMUNb3yQC65kOLM8SaXVSVSMxOfVv3cgnVfZoFnOn5QKWBRRUEoZhwme7BGldub+eBQhSAlTbMwV6Py6dznv+zTyCQugQUg/b6DvBWCy9sRISv55wtFfc0VG75knXg0jg0iv9zZIPPsCuNkA3JMTRyNrQakxqYUwtOI3vkogQYYDBKXXd7WwHKc+d0HIPSeqh1UeuhdTYFsGLcoZzmYRakLWnTnsE0hW5vVqUd620MuyZgq37J/sm+dNY9632tB2ibOXbgIOXlckuALrd3Kp/dIanQ+9hOzD91VIORn/85ROfiaGIFpjE84n/nPnoplneHSXOwZRIyrImLLsW9SrAXb4Z+K9OtUZlgQYv6HPTVQKeNaVOWpeHzqwcRZDXRptL9a+l3JhAAatADtiSMzQBvPee+MZDq5YvuwyhXY/VCcMVdUvSkbBj2NFYOAvY0LBYo01JwWaV34G1m0Hx266JedJjJbuiaWVhCqg0eDFn8xXASSLtx/XyzWOAGqsGa1rmZUe1dwIprSbo/sXkMLdkLBmUCsgKp2xuPwHqAtpljVwRpPmDufaMUy+mO2D7a73/ReVi7TAzDMsX5DFDlfiIQkPP3yQcYopyNLV7qBDA9FyNDiS0YJ2WmI05sWcqlw9H32NKqlp6o76kD1yxthW3r3yuxbH25KjqWbMgzItZhSPuLvYod9aDwId+/FvHwVjcoUgz7AQ75l2viXbrp6IKfkXc+146n2wii/n4Z9Pc1g3TQNx7E9bBCSSWj41jcACDS+XQSRgQdr/3ZlvyAuFk01Raf4VTEYwIEt1gQy94Fsn8mz3syoYCOPxKQynLGJwsADX5+k84ImJfZ0sBhr+eq+Tn5Tr0C9taju5o2jAFIlIeVXuQGQhxLb0fMun4Svz+4RuaYw5jcn2fTtcgkO2cwD6KNd8I1VgTp0g9YExel8P7Sx209w+JnheXp0BvnSxSqlHhEj1MnDpNlVU0Sk5rxiJmMLakJfAew1Nak81EbmGMOOC12DSLAnsYMoBtnLlBJzFh+73PS2AFEudnQKUxLZO2aBxuqC8/DHh2c97MOaVWHtkY0v7jfjNtjZTmcIjUEUkWNGnqPN9Uvg77vHqy75bbXb1YB1Drk1gPx9Weo7skzoM8ydVpOfUR2qZCnDhvuyOGvBF4ZWIDV5wNSdDGMB+5R12+ZQ+5aUWZOMykzBooKwbLcRGUmWPltpQ2/r+ety1WUqXICtx3zNo46ug6MaVC2YvYxemUJQdaMURk3ZW7Rw9tNBT545/Ez9jMjDcis13TyN0wiK/Xdev7bs5aDrTSnC8Kj3CO9AsxarjPoYzxQqIhMTN9zpWC71BvR62BGOh7GtI/Q4tNgsDsFlYH/2HhGOpiQovVQM6lYtETFKC/D9G3aYKUtGZFnINtdjFqLivVE9LBBqmsVK5p6rzkbsw7M+mf6RdPDidiNNFXPgPBm1jsYdHu/qettDKTF//mmHjrvC0hzQ1TTYSSgwHIsMQkjamHVmaYLGuCXJdN8ym4UQKFF05jl+sRrVOH/Q8clVOvolUGaYnr8TDdunO+siak0o/KJxfe9ibaiYrAx1yLvQGHgAlqe3V6OsjRR8WxoYMGoD5s9B3oOTphWhtRNl4FnMOSgQTJkO73t+xVBmgBYvDfb7IQXh1XENkyjBgzUAFW2lBMm0FnlDywLXqVak2xEmSAYNUU9/kLelevAzMmeiPv8TLYQAwGWXLUNplzhg2sCwjSUDH6qDdrYAbRY7DKQpuwf5hl7z/vU9f1RUVICpHTzMxic/Mc5kgg47d8Vcb8YgBUzZWfl/zI4dthL0yGwYnaoJ42lXhfxcsazHhfKrEeOTUC+fGCdNN8L8QoLAWqDFAbNRJXqMwyNHqpJarU0RADSv/F88j8+tmGGQZZgt6i3fxO31+M7XRXbnZtp6H16ayD19FQ/H8kiPLNAWlLoXJOr7QIORXVR2+yw/trooFmRSTd60bflPJhJHa7OdscDtBcPUBtapfCtHebkulJv/+blltiagbHae7KiIIMCFQPm1Tr0mn3guvjXMKTOkC3f7mUdAb4cSKtd/335fxekJWJliVHlWZJCSMKwRX2ozj6BApzrAG4tIOWYjIczGPB/UmkQd5aMKPy6I02lK1p9MPA5by3X3wXpOyIqVurI1OsQ8ylCOZ7vLPWDeMaAwqeJz/XmJU+nSHZc6dr8J5BiqBXdF18sLimAij5KdUF8uOjR9fsb3Ksz9Wr3f1f+f8+ZlPh0RnSKnlfWX0/HPgYPsyYJpVJphd8BEalsq4EA1cEDoRg8054KA6Oy4Srieov8o6X25y6TVu37noPUljwslkyW7Fr9ZoMFIMGwMpjwFqhoQtWQSwK25yKzR0QqRfGt4vpi4z42uOyz5boYPe+S4bNk26xDUr/3IBWTFiMIgNKg7MWCeAdUDNZMCHAsii3KV2t8QN1/fa4tPbV2z7wv9+T6eY/Vrv++/L8L0rqLRw5wAwvAJGBxSwGkHnimqNW5us6Y4EtW5npySZVpMfyfWzJq3oPj3hcQrvaeuyDtA6kYtERrXtZEMiBKAElsryWi88jFvtwJFu0VG1tfrf9XZ1KSuVfrvPfl//capO9LJ7/t7/n/A3/373Y6WqiIAAAAAElFTkSuQmCC;" vertex="1" parent="1">
          <mxGeometry x="930" y="510" width="103.64" height="111" as="geometry" />
        </mxCell>
        <mxCell id="-mBi3haW6h9Ss_a0iaR0-19" value="&lt;div style=&quot;color: rgb(212 , 212 , 212) ; background-color: rgb(30 , 30 , 30) ; font-family: &amp;#34;consolas&amp;#34; , &amp;#34;courier new&amp;#34; , monospace ; font-size: 14px ; line-height: 19px&quot;&gt;&lt;div style=&quot;font-family: &amp;#34;consolas&amp;#34; , &amp;#34;courier new&amp;#34; , monospace ; line-height: 19px&quot;&gt;&lt;span style=&quot;color: #569cd6&quot;&gt;updateRoot&lt;/span&gt;&lt;/div&gt;&lt;/div&gt;" style="sketch=0;points=[[0,0,0],[0.25,0,0],[0.5,0,0],[0.75,0,0],[1,0,0],[0,1,0],[0.25,1,0],[0.5,1,0],[0.75,1,0],[1,1,0],[0,0.25,0],[0,0.5,0],[0,0.75,0],[1,0.25,0],[1,0.5,0],[1,0.75,0]];outlineConnect=0;fontColor=#232F3E;gradientColor=#F78E04;gradientDirection=north;fillColor=#D05C17;strokeColor=#ffffff;dashed=0;verticalLabelPosition=bottom;verticalAlign=top;align=center;html=1;fontSize=12;fontStyle=0;aspect=fixed;shape=mxgraph.aws4.resourceIcon;resIcon=mxgraph.aws4.lambda;" vertex="1" parent="1">
          <mxGeometry x="540" y="320" width="78" height="78" as="geometry" />
        </mxCell>
        <mxCell id="-mBi3haW6h9Ss_a0iaR0-21" value="ar" style="rounded=1;arcSize=10;dashed=1;fillColor=none;gradientColor=none;dashPattern=1 1;strokeWidth=2;" vertex="1" parent="1">
          <mxGeometry x="90" y="-100" width="1010" height="770" as="geometry" />
        </mxCell>
        <mxCell id="-mBi3haW6h9Ss_a0iaR0-22" value="&lt;b&gt;&lt;font style=&quot;font-size: 18px&quot;&gt;ARQUITECTURA 01 - BASADO EN FUNCIONES LAMBDA&amp;nbsp;&lt;/font&gt;&lt;/b&gt;" style="text;html=1;strokeColor=none;fillColor=none;align=center;verticalAlign=middle;whiteSpace=wrap;rounded=0;" vertex="1" parent="1">
          <mxGeometry x="450" y="-80" width="440" height="30" as="geometry" />
        </mxCell>
        <mxCell id="-mBi3haW6h9Ss_a0iaR0-26" style="edgeStyle=orthogonalEdgeStyle;rounded=0;orthogonalLoop=1;jettySize=auto;html=1;entryX=0;entryY=0.75;entryDx=0;entryDy=0;entryPerimeter=0;" edge="1" parent="1" source="-mBi3haW6h9Ss_a0iaR0-27" target="-mBi3haW6h9Ss_a0iaR0-35">
          <mxGeometry relative="1" as="geometry">
            <Array as="points">
              <mxPoint x="520" y="969" />
              <mxPoint x="520" y="988" />
            </Array>
          </mxGeometry>
        </mxCell>
        <mxCell id="-mBi3haW6h9Ss_a0iaR0-27" value="&lt;div style=&quot;color: rgb(212 , 212 , 212) ; background-color: rgb(30 , 30 , 30) ; font-family: &amp;#34;consolas&amp;#34; , &amp;#34;courier new&amp;#34; , monospace ; font-size: 14px ; line-height: 19px&quot;&gt;&lt;span style=&quot;color: #ce9178&quot;&gt;serverless-star-wars-rest-api&lt;/span&gt;&lt;/div&gt;" style="sketch=0;points=[[0,0,0],[0.25,0,0],[0.5,0,0],[0.75,0,0],[1,0,0],[0,1,0],[0.25,1,0],[0.5,1,0],[0.75,1,0],[1,1,0],[0,0.25,0],[0,0.5,0],[0,0.75,0],[1,0.25,0],[1,0.5,0],[1,0.75,0]];outlineConnect=0;fontColor=#232F3E;gradientColor=#945DF2;gradientDirection=north;fillColor=#5A30B5;strokeColor=#ffffff;dashed=0;verticalLabelPosition=bottom;verticalAlign=top;align=center;html=1;fontSize=12;fontStyle=0;aspect=fixed;shape=mxgraph.aws4.resourceIcon;resIcon=mxgraph.aws4.api_gateway;" vertex="1" parent="1">
          <mxGeometry x="210" y="930" width="78" height="78" as="geometry" />
        </mxCell>
        <mxCell id="-mBi3haW6h9Ss_a0iaR0-34" style="edgeStyle=orthogonalEdgeStyle;rounded=0;orthogonalLoop=1;jettySize=auto;html=1;" edge="1" parent="1" source="-mBi3haW6h9Ss_a0iaR0-35" target="-mBi3haW6h9Ss_a0iaR0-36">
          <mxGeometry relative="1" as="geometry" />
        </mxCell>
        <mxCell id="-mBi3haW6h9Ss_a0iaR0-35" value="&lt;div style=&quot;color: rgb(212 , 212 , 212) ; background-color: rgb(30 , 30 , 30) ; font-family: &amp;#34;consolas&amp;#34; , &amp;#34;courier new&amp;#34; , monospace ; font-size: 14px ; line-height: 19px&quot;&gt;&lt;span style=&quot;color: rgb(206 , 145 , 120)&quot;&gt;star-wars-LAMBDA-rest&lt;/span&gt;&lt;br&gt;&lt;/div&gt;" style="sketch=0;points=[[0,0,0],[0.25,0,0],[0.5,0,0],[0.75,0,0],[1,0,0],[0,1,0],[0.25,1,0],[0.5,1,0],[0.75,1,0],[1,1,0],[0,0.25,0],[0,0.5,0],[0,0.75,0],[1,0.25,0],[1,0.5,0],[1,0.75,0]];outlineConnect=0;fontColor=#232F3E;gradientColor=#F78E04;gradientDirection=north;fillColor=#D05C17;strokeColor=#ffffff;dashed=0;verticalLabelPosition=bottom;verticalAlign=top;align=center;html=1;fontSize=12;fontStyle=0;aspect=fixed;shape=mxgraph.aws4.resourceIcon;resIcon=mxgraph.aws4.lambda;" vertex="1" parent="1">
          <mxGeometry x="500" y="930" width="78" height="78" as="geometry" />
        </mxCell>
        <mxCell id="-mBi3haW6h9Ss_a0iaR0-36" value="" style="outlineConnect=0;dashed=0;verticalLabelPosition=bottom;verticalAlign=top;align=center;html=1;shape=mxgraph.aws3.dynamo_db;fillColor=#2E73B8;gradientColor=none;" vertex="1" parent="1">
          <mxGeometry x="832" y="890" width="72" height="81" as="geometry" />
        </mxCell>
        <mxCell id="-mBi3haW6h9Ss_a0iaR0-37" style="edgeStyle=orthogonalEdgeStyle;rounded=0;orthogonalLoop=1;jettySize=auto;html=1;" edge="1" parent="1" source="-mBi3haW6h9Ss_a0iaR0-38" target="-mBi3haW6h9Ss_a0iaR0-35">
          <mxGeometry relative="1" as="geometry">
            <Array as="points">
              <mxPoint x="543" y="1130" />
            </Array>
          </mxGeometry>
        </mxCell>
        <mxCell id="-mBi3haW6h9Ss_a0iaR0-38" value="swapi" style="shape=image;verticalLabelPosition=bottom;labelBackgroundColor=#ffffff;verticalAlign=top;aspect=fixed;imageAspect=0;image=data:image/png,iVBORw0KGgoAAAANSUhEUgAAAKkAAAC1CAYAAAAkwd/PAAAgAElEQVR4Ae29+Xdd2XXnx/80S6XiXCWpijOr7KS7o7VsWY7tOI5alrRWuzvt9OC0E9lyPHRZUqyhqgiA4AyABOcBIDiTGN64sz7f79nvXjxixgMIkvjhrvuGO57zPd89nn32vJrpxu622wY7GQN7dvLD7T7b7uABA7sg3ZUkO16S7oJ0F6S7IN3JIvvFdDdmH0XMPY54+bATr6baMT8TscBvD7v+rQ/EHPfyYei81d7Nx3Z0LPfhvFdT3Zh7yPV9Dd13xs/xYrrtY2bKsX33Xu1+7+r/7zWTCjQzEa8KKPjOVgdR/395zNoA4evlNWenfW0GAhvXMDA7i57B9+S3XZ2UNnjvQQqbsgGMOiD5DPuJaR8aVAku9rPTq4MIRuZYgx4G7Zbv3d75/ezpQQBbr3799wXE7zVI+0GZ3wEOWx2U+RngpTqwGkgSlAbq0iBN9eHldIQ2sfkuSOtt+16DFFAATIPTzJXsCXhgQHRIxDQbOmtdb6035FKfZx+2BGhAyvm6H7poYWmfU+7P/0Xd2GXRxWrOew1SwILRZKPG7AVQnj+IeHynGzM3uzF9oxlP7gJgwGQxDUOyLQXM+m+AlPOe3uvG1GQnHlxjH/HwRsSjWyE1g3t7kNRB6t/q13qfP7/XIDXDVaIVpnt8O+LB1Yg7VyJuXoi4fr4pcPEfgE6wrIXtBP7piOnrEdfPtWNytBuT5ztx/UInbl7qCLyvalZ+XjMZNe/1vu/fe5AivlMsA8T7E924drYTY19HTI5GXDnTicnzzZi5HfF8emm31HIgAmzP7kXcG4+YGOrE2JmIieGIiRG2dszcakoFqJgc5uUeRTXYte7VHm83SKdsLcNGL6eK4TGzELOPbfTATMlKWPB8rsRrJxZmOrKy52bwT7bi2f0Qw02MdAXOq2cNqKsjbYGX++jYqUY0xKoplpfbtyXWAT3AvDYaMT7sz+PDEXfGu/FiinPbMfvIOvHzKasI3At9uGekFR8u7G/GbetZ0jhL99ZC8SZIf35HQP5Wg3T+UVvGjV1IVUen/ui9AZRgrVivst4BHKIckCKKe+A8G/p8dbgbtySeiyvqUUfg8SBIXXbpPaoD5/eDlO/3r3ZCYJzhPTzgcG3NPbZzPw0uAJjuLD+/3ykHHPv5Rx2BlnN0rQL66n1X16F36rFvNUjnZlo9Vnn1CAZqq9MR2wJQzWJO4CYLibkeRGEyGy2PbndicrQVsJyB2u0B9vq5Tkxf7+r6C4+78Wq6WYyp5VjU1wbcXM8iHrB2e9e/M9bU/XkmMWHxIgBUGFU6cPEuiFGTcR9ijNkAw7hjcFlKEN1isJRzd5n0zY/MBCMAfHI3ZEHP3LQ1Tac9n6KzO8VZ7+dN9ktGQtymKoDFjYFzdThiUqK+3RPPiOw7VzoCxPwTQFHEcnFh1Vk7Pz+5E3HtbEt6KKC3qO/G2JDBf/tyW54EhUinFwcM+M0DysEAQDz7sCmWxftwbxzGR19ux93xiKlrNvosMSpvxE5lx/U811vNpIBUbqJJdEkbI1jPuHmkp0ontRjORlEnFp8lQKtA62vBmBNDEdekQ5r5zIIR1861Y3qy8ncC7pW2e1cNzKsjZubx4ZaY2czajTuXbVghrtF1EdO5IbZhU/4DoPLXSoQzGBlM1m1hZnRdnvHWZbMq78p75ju/7fu3GqTSIc91AhDYKIkYH4q4cTHi8b0qscO6W7Gai+UMwF9MN3uGFKBGR8TqvvJ1MZhk8Jj1DIS2dFbAd+9qJ+6OdVfc0G+lOhSQcm0YNVWJydF2TF8v0a1HnZ5eyXPVY/o2rhwEYFDeuGCwA1DYlOtd/soDlWMxHDn/bQdnPv9bDVL0MjoeYAIiOgwXD8C4daUpPyRgNEgBpbOMkk0RqfOoBfcjnt6NuH0lGS/3gNZMlYOA79xzbHhB9+Fey20JSj1TPp+AxXMj9ttx82JTQEU14DmswlR6rsW3AcozonLgbWBgWn1om0mHI+6OFYMKkMpr8OZVsgTaZvZvNUjpWNhq8hwd1oorQ/M90Qeo7l9tSFe1BZ06HoxqXfXp7XY8vhFx70rTnT9qhhobiRg72+4BFKYCUIDx2ln7T/ltOXBWv7f0bFcA8mgnro1iNJn52HMtwAqjXj8XceuiAwkYcGkMMbAwoAAvESvEvO49FAIqA8ED1CBFB5cK8y6BNEfqUvvNoL9+bup97NOo8J6RbrEk3asWInwxk8caVDZU+kTYg4jbF7rSH9HJxkcaAoI+D9sI6umQM13peI/vtGVk3L5ktqTDczNLph66/XueA8Ax6NjuTnTiwWTENANpggEJyFsaMDzr1TKoklUfXrdHwe1cudjQb9M1la4uvAV4EQA/g9h+2so7spYsr3ofb+XnPUuBM38b5I0NVLtK8vrsAWsClGPS0q70yLr/cfH5z+50JC6xxm3coPPBWAbe2NeduD4aMlAIc+IOItQpy33ILJYAZb/dIM17533zO8+vdxhtCogYbGypf+bx3vtdr51rKXCQ7Qn7JiArkGbaoPf4Vqs2dzAhSYT/Btn/m7nWtoGUh6yDk880nlwrSga2Mzud1vxXvVjR0QC1XDMFrA9aMnawxBNkiOX8DHD9uRLNBrO/L+7sxcxZXWPx7yuds97/uEdu/edWv+cArAy4/v9QI25caCgpBj3bHoLXXVrSwXusWo6TJCMQkrq7I1mL2//N6rZ7VnKhVCDZ/EP2A5TvCche45WoSTKAxZajL2ZWg9WszEh32BF9LjsufZCIRUQmHZj/VXv7GPuBUf/OsfXvW/W5eqbX74dum4OKvXVdG3Och+6MUcZnLH78vLQlojpB5rbyoE6WTLadnSpqAMGJnLLyqGUvww5yYe3JEbTUfhAgXQqcvcbCBUQYsMeqHUVyAGnzScWkvkZd7OPftA+RrCXAmJ1NRyIqAWkaMHWAYbAAZANgeZbkevXztvJzPnv/PW29V4OMZ/Bvft8EKQBmMN6fcCSKNm09c/tZnOPVSNFu9xTf50pEjlTCXvogLizN8arafxA42Mw1tlTcLwVQfkuQojcRPSFaxD7BCkgVJiypcdnAvKgZ1cyOCwrDApBWIHIHAtJkGet49ilynEChTKTlQVpdb+uPqYO0DlRLAbN+6qnSVTWAzLIcjwtOg/NsK+6OtZUDK9cb6lQvIpYGKGAtffDQebNEvlCZ8C48upnGlzOyNgOuQZ27LSBNUKZIoZFQM55PGWS3L3eVw4mfkJAjQASYCUg+J0BpfNwziLabl1OkJ0jbRcSbWeynTNGOC6klH6cNEIvN7QTjeu+Ffp1bnUENZL+zpYZBeuUMLrROXB1txp0xt5FcWZnLkN6VkthNYACDkudSGuGIAyFEtJ7d37yKNzCQAoTlts3eJEdsXj9Bii/v2YN23B5rKfZMI+FewQ/4+E5LTvc6QBOkABTfKDmf6GATZ5tikOvnYU9Hi+g0rpffxVLoc7ANTv/i5gHAKU7XC55BHV9nzaWuyfNKGvQZgH4/Swwzq33FXI/3u/h1V/rq5Ll5tSkSx14TBrsH+cMbnbhxESnhe1gatePy100lZj+8uYPEPQr2RjdbkRlvtrhGZOcmkNaykxwFaSu6c0PAMgMISCRLnLO7CP1I7PsIvdPpbCQPI9qJ0acxtFTH7v5WqSekCBKdunmxreQbwMogJwlbiS9nm2JQDxYDnPbDEIWBN0tSgzp/z0YButR5Cc7cp5M4gQYTYvAQUVEj1dLWYDU2GuzG+U7cv9pSVjuhQDKbaFgyfmwQZfpb1SG74Hy9LfAfXyUyhTE5QnDDm1x28hy0e3q7289SCBUAG2FQINvsdTYF0nQV9QM2QQooM6KUoUm+M7GN0Q0g0xqnkRR6LEYAocJqS/Ft8cR5i42l1ztoF7RuqxTnyh9QnkHlwqKNaMvcIACkFJLMqtrO0Es3BVL8nLklUFMFwA1ikNqqTKc9IOV3GgK9UH5NdMYSJWJekeLjxOPPdJU2p4aWNc45BvZqLqRdkNpdJckz0iiRq1YvcuX2s+okXZ28gpGGLPydxKKw8KZAmoBMgPbv0SvTAIJdBdxiYaLzOAcUvclihqQORnWC0kaB/+s3cnzcLoOuNBjTiExVKpmT9k1rnvg/nyWZzjblZZGhu4YKLZsV42s9f1Mg7Qdlfk/wYlHywvXfAaqsfLJ6mP9ztlP8fB2NZFvlBh+fF2+VaFqpc3b/q9oPoGqwFyu+8h2nOtDWpEMdM+qo1TsF0gRjgrB/n64jgMl/qAYwqiz3ma7m6dy80JXybp3Jfr70bybYYM1eY5dpGOiv+f/ufmmJMjbUlJuOgS4QFimlgT/a7Eks2hJpxu9Y/6hm9NdamW6rj9sSJu2B9UmpEAJIyTwvCSUo5QCY/a1LLVmfgNRiPlmgzFHn995/FZPuivulgVkfsAYe7doWWP1ftnPR7WWoOjrHcYRIX01FmbL9DhhOGEA9QOJvfdQMZlJ6FJL7WdXbTJByjg2qdrycIWcyG9C6pxpUlv7qnVDvkN3PG2iv3uCviAEH/8NbXfUNfm2IBBci/YrkZK6Vp6bknCwzbwYLUr2DjQfFsJti0nxwxDhz19kLtCWbSQ/8xP/xgmk48eJYkFOUn7ngJF5FhOQiIXS5egLILig3AEpNfamdJ5DWvpe5YhStAKjzTwuTPojIjCn6N/svCSrdjPyexKVp3wOaUr05kD5pqMqcytQUBkXnXHjs4gnong1Aitin+MGjTjSeOK8UBz2JvFieWJcJUsBX6U/1Btz9PPiBuVh6qQ/KfDEYlT7CC0O/LTwmha+pWa2wJCwLMQFM4vyQjqRksTnEujsCpI9dBkai/FHbor6XE+qX838WF4AVdiWxQQZTcSbjF003FLomGw02+E7ZBfriNs02rlx/dbJgJgNAhWzoR8iIjQorsCxAzWggnhr0WVQD+vjlAMOqm2JSWJO8T0YQI0kPL9Ysop+Rp7nksKt1mgSookslDJrMiXWJv44tQbu4UXdBNsj2qIxPQOqQdP361842NfVm5oZnsgJWAAhzkqByd7wl57+IZdSzJAAux+wYnRQAojAzim5djpgu1UNSFGhUFdcTL0jM3gzKCGZjpmOGPN1Q6WqqW/r1htv9PLiBmlLLxiouvdx8D1iV/oBRyTyDNZnsR1EL94+lHn0C6dCXJF47OaVv0uQmRP+mmBTFmfpIPBwvxGi8cdEV6B5dLw9blGnyP7MuEqHQsbMuN5Ogy+QSWDSZNf/b3Q8OmPW2rEC61PUjJjTjoVNSIkvQRWqY+7o/MIBtQRKLamaVWcCDsPA3BVJGDBlLAtg5z7nRiDqL75OE2o6yxKmWTEIJ4JTTfpR57QXYJVeSBksWdePt/KTkeoe/nZ8zIFIxIwyp9lftgW5QM4Df3DfdCrDUy6rNiJB6xm+j7XhwzfkZgwAo11gRpD2XUl/OqePwzuJ25/jFMkasl3zNvbHUaH2zv6Wq4fnr1smUxqYKIe5Av5M7KlPelAK3hvdTPifpcmWjxtSirc8ltOheJZ9hZ4OfdilGV5lbRlY/Nooji4MJBqwLpAnaBCn+NCUolCpxZsAyEtfQiW+6A8ZHKJVjMVZFtTxwrL4YnGQMZdZQvmMOztTNltrnOfmeBmE1hSXVmrx+Xhu1yVNd3uwgzudefp/k5D3V/UjDJJqIKrgtTJrO2twnSPkOUFn84NYV+zqzU9NKpMGXf7kd0vhlOnAPLGWKCc9Ndb4JZp2WqcPSoc+2VS6HkjlZhmeld1S5HsRm2RCdbHzXdYeY/pJqjQeC/j/blT640rV3xn8GJ89CRhtxf0UZZ7IQ3DYwaYJzuX3l80zG8TyjZISd0ZDLDwjACQPaHeZcS/Qscluti6W1671nBTjNDSMhxfhy+8XvX78G061bLi8psW6/MNe8zHRrfMU1fW/xdZZ/n+0/ziDFWM5EaSr6uSTSG2LSOlhhVUWPqBF6w/qpO9FFv94GJqU0DXppMimdbGZz41McjJms6FlIDVxrTMNuPItovYjozq+8xUJEZ64bjefpX7TzGzcNUzQo9wPAx88YwEwonLwYYnAPkp0EyCWeBZWOHNRruJsMSiJQ+fmNiPt+kFKzHrCiKFMYTCKyNiVh+0f2Eg3ZZ5zUnwnmgkkZUKkXAkzmVzFrtfGkHe3nETHbjZiPsrUj5tsRc93VQco5c92I2Y73eY3ZbnRetmPuSSOe3m95/hZqxZlMRqb2U2PHq0sqTnG2Kcc+U9EVCiXOL8C+KT9pSbfrgVXxeIdDcUdR3zMNCHTTOiB24ucU9zwbz47Sv/AsovsKYEZ057xVAAV0/o//YcoVtz6mzWO7C+3ozLd6IO/Mut4A96e4wyR+Zw2g9Q267W5jgXQEB34p5lGKerwxkMpo6gNpA9cUSxM+aSjRgPKECVKSR7a70dZ7v2sXXVqRlME2wAR0Yr+yb3QCQHXnYU1vOqbRiWBbBaTdRsRr20JEt2ycL5Vhoa3r8RlVggGPirHe99nu41FJMJipfEKtV+Vp9Fa8HlwFlJ4LChAKiHWf6CNuXG3E39kyaaRZ1oWfe9KRvkZoVH4zVvDYhgQRjAysbumUzDEvU3fl6yyLHtgoKlGsov+xeAOlxxeedaL5oiO90eBbhRlXAeVqoF3v/+h26Hue/m3nOSpVSqlKl67IYTuBKiIqHhLKs7981FUFGjw/UgNL/anFuql1VlTE/F0pfiUy2fss3dbegR5IEeH9IE3g9v/eE/clOwa3g1buuOA4PMaIGXVrxdXV8+4cub8AKNMkWO1DMeii352lxqf9oYD43ph16NbLmiivgQ/GxNhhWy+otuJ4GB7xyeoigPPyV1VJnCtnrLcmWNMPi45tVWaL279krDEwqLg9fdOzLfD61J35noVh/+nSn53yVweoDbAlQLoIfHVGrX8uWdpi1JIvSgaUarmXTBobIk5e3sqRnZ3hQVH8tcXviBsJaxkAs5EUwXP2xHoNmFsBroFdE5VjvivWt85aigCTg1ve1e2NDWAjsPq+tSC14ck9rNohSVFV8IBowmWyY6neVwchUiKnENV/r39Opt2zEkumeK/2zFWy+CexGWuO/EISClIE0UCaWzO69SAlFwCA2qvQlnWsGDJO+NGOXDskPJC5s/A0rEeWTreOmS6kncGarwG7Z3h1I5p+RtIh0VcdvrXeynx5yIB3JzcXsLLwxFYShO4nJvVaANwT9sbLIxeUSiTZ9Waw+TMg9FSTij0N2Op7AnVNIHUuaNZ6yr2pHNYlM/vpvU4vu8mNYjGbDbeVDZXGGWC1DuxITkaJcCfxfFjSGDqIcIwTwABIXwNFYVcDePn/lztv0L935ht+RsCKV6E8X+M5FQkbKq2uxXo1c7bk4CocvT3i3hLMVVDoZ5gdNqU0EnaKVil85FqyAA41IAEJ2wrMcle9DlCA2gNpv4hPPZTflbzaK1Ndhbjyd5RffIoUxcLPCIsyoqQjboMLinr4GEbKvKICyohXVSaf4O6E2TPFez8o2/gudxgo83lyX39mPtf1ZLwOBBcIDJDIkqKXdxfLbUeCCgXPcoCUfAMw4GK+nlJCoTnyUFlOHZZlJT82PvP8CdRkT4PToF0RpALodEcKewKy2nv9ShKamS6A+wGAVsq7v28lg+a1KcbF6KVjlDamgdKRRYxYVGfDQGyIy4Z1UgG32e4DacVUCZI3vYc9ZcQVScDzIwkkEXinhomEpHMvnVNl19Mn2U5bt3cGlFS8JCjNtugIF6hh9XS+ujF36xL6a65SvU4mTYC+uN/U9ABcNcRlSR6oT7YC8eSJohvBnPkwPUbdlkaq2BuRT6PwrExpwd/ZfVn5PbuvEPf4Ny366+KzDkb5LaULvnlxr2eF7Yu417PhUy2/pTrQfGG2AgRiVEhjG/zU9HuSU94XwAoDhUAYIB4wPlah85GGaqMS1ROmSii1bkiht1ZM+hRd01ORWd/SII14MGaXh/MFO3HjgqeIoHMQnSEta+tGqK1SGWBFOdfLFktdxlFJzEAvGh9qanVldCFFi+btgK+D7538DKuKZVtB1Ir1A1C9Ln9dVskrxpTVMBuWAAvPR0aLtrIPkXKAOIGce3khRlgcrRsvCKOWyt4QHyoAGFSItUw52cOsv56Fz0zPh2ZN1jtiBNS3rXyhpa9duVTc0IDXei/H89I83+RoV35aGEVx9aJrvpPArL2bwraF9WFZolUAlbVVKxFcSmr2bIbCbNuQZYXHJ/uNPf0lm6VI2duXm3JZWR+taoS9BlLcSyRSiEFLsgiKLxeDwvNlEadsAgk5kdsUW877e19FWwxqPx+ObgG0hTFUDKLGztMxBz1oAGalClg9oR1QeQCIxGwp2S7RLBXARu52qANIObsm8aO6XBLPgXSW8/+6jSuLeS/NjjHOTFMXtqs585vPWoVe7cNCpMutU0YfAEmmS9Dk963c84KViKi/sH2CiBMA2vOBLnR6rhqs30GDYqddDwMKI9D6Na62hlxrZCRNTbIkepXfq7llvYUtDJSt7DuuDVawVaSSlRkQpCeSpshAQrQj6tE9nYPqwiGAdJG4R7zDpHLMF92ANS2pYMFNAAJbvpC/Z+jRumP+N+j9YpCaNWGHZPQ7Y03FimX1AsqSubTTwLSVzyNjsBhSSgnEBzwXKt6QKzrDYgx2pB/9Z9BUxDPofutdr0zWM6u3NJMUKY0RbhGfAHXI1IaSdVJU0MpwImb/uCrNCLJZVwnflnWbAlL0iCLmAUqdXXsPtULu5saOqYoWyIgqKsjEcEuObJzFAgCindQ5xB9Oe4yJmu72Ln+WxMDnmzmvvDft0fSMTc/SbVp/L5a3wpjbkAAEXhInJPUg9bDm8Y3iwvTS7lVMP32miPpF4l4AJR5fz4JiYdRSMpwFFW6cd4YRMx2tU1Q33xj41sbAHgzWQ/WyDJSh0KK3GAhyduM7TF8oRkRJrVNHvetABYykDCZIGai0xSwphs2IV86RVVG4Mq8KVoVNSbbZyr7j2gYoWCFP1vonkSay6JDc6KKwpUV+5cAXQKeqpOk9jacuhZMWPvpA86lBywVJGCCplfnU6Dj4Rdlgs61+SUailO8SRWGAEF1B32L6BgxZARRx35ErRr/TSe86SOvvhxSBTQFpMajwdJDtRfVCpzXaNcXgJ5y61f1nMW+HPvkTYspHjbI0J98NRHCW4h/AJhYXiXss+6U2setj6Lgl8c9NPRLTnbA2RtxoYzASaVBZpsXdhJ5FDqg6o95Ju5+XHZQYlrgUCWGyqJvmT22DCwpfLHow4WuSkMAYC80hpQFlgnC1/aJ80qWAStYTiEfZdbaRgZO6xkYBuNbzJJrwLhQlnHS1jMe/V0y5kUFYZg/g6M/+I+IDeK6MbD2T0neAFIueyCVM6kgSILWoXw2g/L8iSGHSuRmX+iNRwMv8VTMq1wq0jR9nVwmzOmHTe1e70XrVLi6Xd98PuulBSAi4gJuBTfux/ujEuSyfs7WSkH7PqOGdK61eQgks6mrRVehzJbCuCFJS8QiVojMwEnHAOkwKeLZH8UbFYMPfhmVIogh6aD1DKDtid983cJWQUrKnml0ldCAB0fO3KyxqlY2wekspfOkXXQmU/f+tCFIpsKUoKs5XRykyLrz1IE0XBixKom/rZTW1uOcf3IgYfF/OKS45tVsDXd5pdGK4WoBm45JuZSaGXBy67gg7YMgrI1aWfT8gl/q+IkiloxZ3FC4EG06Va2GrXi6vi9HEZ14UXQYWRb96L9xLAxhI8nyUNlMIdcHemu0IidJv6L9p/LInx1dhz7K2wlKAXOq31UFalp5GH/WoKH62bRiJqVKYRQ3ObOxd0d4n2pcAdU8lKnmoDG6y+jFikgi2Z++EdDBEDjJGEwS4FCCX+m1FkOZkO/RRRh/zZ5xoUsr9DTzC1Cc+VMTVSrZAqURfiipU00B2wboCWJtNG5lY+dLjGejO4ZzUjN6+9t6C/oRN5e9GFz7Xjsd3qBW1AZAqj7REnUB4xvFnZ15pHhPhLAwmFdIqDIpTfbOjMJVqR5YcxcJtYePMURGmp6BTSXTBFg3nTg5E5Cs6Y8BragbWsJzioWiNQo4NDwq5vaTj2WgTo5M5X4IKRH6U7NFsRWehG52FCE1R4ZxkOQpQ6HtLkbFeFZQSKZMqM4/uHdFttgwswMXkQb5znVJdJZqrByvUZqXABfe1FOqodNCD8bbcUFVubilwXNofYG22f3UNrlOuhY8WD8PjuxHPyzoLGSa1Q9+hUmyhRWFRVgQRY5apyln4gUya5lMqlHiteYCDRSjnusJqgwQpwFzcKACYyBZ19um8CqRVplOv8xME694DhAJMANuMaD0j5a3Vi4VjoBmsBhvA05QO1XjKkjtEehzt6c42DUSuR0QMl1lWR2m0BFyBGdBwLKmFnEt9KQA8v6DPel8lb7sKSnu+o2tlRGktak8PpEw6rIGUGQtPbpl4DKDS9sofNkkksDYDVHtmfG3Ixz7vTkyeJ6hA/kVXIW7cU6h05Is8v18KSzyoKqC8Ju7rOgEAdRKtq77xwEQtuJlCo1sgHtwoZlVKneOy6DVwmY6szl9htueawQv4Xzl7KuYaZsXZjoAkEJD5PsucolpZnTozwpZzC5X6UYAqIMGGNZZtvoQ9C3DLdQVKjqMoGtdtNCPm5v1ZwPace53H/wwoQF3YdrX3TJBqoPXEvUU/EhOwZARR7Z7sSUGNAdgcEvVlTr5JCMAWZqVW69cmvZ7kPNtRGh+h+BfTzZ7Ougdri7w+EIzDnikYVCNhCRTEPIsxUN6vPqJ4gcG8hK/ja7nAAPeRVU+1kfESXRILMJGulMTBVzoAkCJWURvaL1oRTRI1DMgmOZp9tZ7oaIPVYlP3Byyzs2bMhYjmy6ZZH+ALUOECaNyjaZC2stAZg6En/lNnLKpHSRTpFAYW88LMsG0BqUC9iuRItk2QanCXPFuuSYhZIO1lRBVGzU2ckgoAACAASURBVBLjmyWhnqgv4JS0rPocGwf/NxsYoDoL7Av+NCU6p48gTqnkRiFUnPWwl5JJhhtKQqiPBtP14OL2dV00R1MPpEXUq2GTBXCnwFalUMJqTLLa/3RiF2DOOnSX0y4oLPFoCgA7iRhGYmvPurCY5xUl+zkDHn19gmAHpX+onDLaUYx8kvpYFzoxfr4VszBmqx3d2QVnL2kGK3PrG0rcvjkWcYO5Zec7qr7CNODeO0gVKPecLyrFqiB1tn4OKLVlrwCbiQgDCj+0SSjBNBjDWPqu2DmvbxUxSY49+GLDc4SKwW+8dz1sukdL3BB2lM7gh5QoH8rsfDtkeYlMNvYLVczn7+vXUReD1P5XP4cjTKgeMB3AFCuUCEqv41bppNWO6zZmZZS9mI747vEzcfqjX8aJfaNx+sD1+PPvs1iqjaQ0gPwMMGLTvtpXuHQifvej0Tjy4Vdx8vCl+OSb5+PkwZtxdO9EnDw4Gke+ORKnD12JY3vPx+cfnY1//6d3NVmOgdFqvfS0l2YE7P3jP74WRw58GUf2/iZO7h+OX/3DbCy8YGBQ47RsDCzuz2DdwPvbM+JzkaAkniQ4UiSLjAZiGGeapROtAWIdoODGIKWGVxpYoXXBkPCpeu5hVTMOVMZKrZaQKhBrbSYzZw/ERblOx/5GAZrn8dD52X5YZ/0zI1XzlgAmIip1QfTSYpRspJPq52BAoO/94m9acWTvb+P4R7+OE4eH4+SBu3Hy4Hkp8xyfU4d5BuWrLhSxjuHTasbxDy7EiQNn4/THV+Looa/j1EeX4/ihoTh+aCROHroapw5MxKkDY3Hq4MX41v/w3+Ozj38Vf/XjYm2jLTyZj/ZCI/78f7kZxw9djs8/vh2nD1yML/66GR3euxkRPOur8u7FpVR/l/V8TjUAw/j2pQQp6wDktBynRGa/bHRvwymBaoBCTHZjQmr+rdp3g1X4SMV8DaQCHHSr2XwYRi3ljmZ817TccbIA6Vdl9bONPnz9PF/bQBXls0reuXZQ6xS2UeOnawjmaLat9w1AJ4WdYLDfOzkRJ/bfimMf/TqOf3Q2ju2/HMcODscX/+1BNBHRzXln+6swQyeiVZ4NXXO+E599OBWfHboWn354OU589GUc3z8Sxw/+Sxw7eDaOH/gqjh/4Oo7tOxMnDgyLbY/svxQnProYf/MXjyMwrmYbGng/+v50HDk4FMcPjMexvV/Gz3/KAHESMyDVIJHq07UrajUmrU9GBNjaKhWCQcp8I4OkH6QVedT7az2fkzmTob1PiWujLUkKvfTOmOc+4ZaqJ6DsYVopNduhW1EuICwbF6j8aFy0duE+Y2o9D5/HShcqsxkROXxXyG7I1S3Www5LHgvjIhZ7ycCenGffJsZKK65e7MbR/eckmo/tOxvH9t2LY9/6pzj+wdX43Y8nY+F58YXO2xUGaPCDooa0pA5EnPzwRpza+6s4fvi3cXLvWPzJd6fjx3/Qin/7/ZvxF3/SjR//ydM4+a3fxvGDl+KTb0zG59+6KSDCrJfOFv/nXDd++L3nceLwuTh5CGBfif/+t8XFxX00RaaI+A2K+v42glFxrqvtVfTM1raBMziQJhCpNMNn0vfAEtltTG8hAsaaBIAzdVGml7ycWVCC9J7p621Z8FSfk9gfKpa8WNWUnCNtEUh7roUcGevfA0rXLrLI6X0fKhlPqzHFKv9LLWjiJkKHKx2uDk5gRPwff/ZKYvnEvsvx6TeH4tS3huI7H34ZJ/efjRMHz8QvftqxoVZ8lmJ3pcAVZ/tCM47tHxdLfvLR13Hi4Jcxfr7bq/A896xtx34j4tf/0Irj+76KYx9e1HEnDpyLv/zzJ5YYjW784PeexsnDV8y6hy5uC0if3C0g1UyLwYJUJFcrB2oV0X3Nkjr4RbHkn95zTN9znOrpe+1YmInYw2xRXE9kqGDlX7/YEJuhgwLKNJY8GjxnuwLt+oGZLKq9rLniyC+6il5kyFNd+0f+er+nm6qn06bLp9GUI/3xvU6cPnw+jh7E2BkRgP6vv3gpnfTYh5dlxPzBZ5PRJrKE6iHXV2HnAnqMqiN7L8apj8/GsY8n48g3zsW1C91oU0FaorwMDuYdzUX8/X+Zj+MHfhGn0H0Pno//8TvjPbXmh3/wKE4cmIxj+6wWbAeTkimfTEe/ymiSnbB5JnVfO2vOot+eEET79A0D07qn+xufeKbyaf/QE/b2ZHyeg6FbnPcPrrEuqPNHewZTz2fGw6fCO0CQStflem1NEqMax3pB2X98hwUU5Iiv+RjlC7Ub62//41x8dngsPkHMH7gYf/0XC/HgVsTxfRdk+Bw7cC5OHPxa4WCFJtEPa+oDoU/E8Im9V+PEvpE4emg4Tu77Oq6M2tATk+MvbXjFksarhbgx3oqjB4bi0wPjcfrQJemsMmRmu/HjP74fR745KQbnebYapLQXYtWMl4ZNIY2+COAiculhYS393w9SpstHPIE9S7nyFPFpzees0ZxiYpCyYMOjThAiVQwV85+yjhNlwpaKT3lk2QIf1CjLhvH15MQnm3t4MBWZpcdhLMgf6hAkeQCwIquM/OtPL8a3v/GLOPnxJemL1y7Y2v/rn4QMJ/RCwPIf/nQ22s3ifGdmZon8tOY6MpyOfzgRx/cOy+j67OBwjJ1LK9whVxVOw+X0KmLoV/Nx4uBEHDt8PU7svxinDg/ZvTaLC+puHN17LU4eOhPHD17YFpCSFSWWK8Qjo7k43TcOTIM3pS977mHsuKbDU+mfAHX57dWjhojTlZ4LSAHqq+mmLCvAis7gWaLWVXjoQYOUayY4vfcCXP2suJHvWvlDRSMAVldV9sRaLfTDebHokf1fxKlDN+K7p8ei1WhrfSUa9fjB8wIubPo7H0/E9J3iSAegaXGX2vpH912SXnv08PU49s0LWjAMd5ETSHDWM1CIyUf85I8m4vj+38gthU76/d+57+vNR0jcH7waR/f9VtfbDiZFXZGrKKWjDGJLy82CFKzYjrEP3KD1NKQn98uEPCbl5VYDLPnDYJBK4gKpZoWWqaRQLrNDEQOI/kksMqIGJSrBjdFTfcO10P1Kx9QZNIMDvtdGQNl/DuJW0aHiV0VHBLivnkV877Mx6X+f7v1lnDx8MX7+9y35KrPc4nc/u26L/+BwfLpvKH72n5ol9m6DSToqYG114tThyTi+fzQ+OXwmPvt4JMbOOROKAdGaa+qetyba8Zd/9jw+/eDXEvNHvjkqsf7//lXT2VILnfi3v/8iTn88Hkf3faln2g6Qorcr7J2FHAYIUjCiAVB03AqkEU/ue+0n132q2HSRqJ/ySje9mvk6mIzpJ1ZeASqW1+S5hpJJ5Nwv4StA6lGyEgBX/y+BLqs+54GXASGf3irWez8o+79LJyRpA4MJoAo0nbgx0YxPPjgTRw+MxGeHJuLIvvPxDH8oqoGMnW588bOQK+jYvkkx6u9+eyjm0ZPn0XOdR9BqdOXHPL3vVpz88Ldx8uPhOPbB5Tj50aj12gNfxakDV6U6ECQ4svdKfPbRnThx6LKu+TvfGYrpeyVYMN+OH31/Vn7UY/txQU1subiXVGl0gtLx9AG2hvM0BsOkjmRlxLLYMcOujIO4V8ZdSQ3tF/swKUkw4HIPUQdmhM4/7AbrMmHys5FTqnlNVGfLFyijLQtQbVYcqFGkhLtmpr87RW8QIFVGEf5MgCejZ17G2L/7k2dx8vBkfHb4siJNv/fZpfj5z7rx879rxD//TcTP/zbib/9TN07tvyCG/NaHv47T3x6OL//JMXx1LgOIRJL5iBPfvBynDpwPGVqHLsqZjygHrJ/u/22c+viCdFs5+w+Oxaf7fy0X1NAXC1YF2s58+skfPYljHw5JZyUIsNVMKq/Hgi16AjSQRqpeAGyz/VsnMq5P/xJy16Q8GU42npxLajaFJGFTVIBcH2wPP/Cl9cx5fCSbYkAxUxRxj//UtF3FVgHpZl+A8/O6YtResYIBgrQesSpM+vhWxOmPfhWf7h2P4/uvx6nD12SkOJQ5qrDokf1nZN1/dnBcrHf625fikw+H4/dPX4pOY26R16E1146TB87EJ/t+E8cOXYjPv30nThy8Gsf3XokjH/x/cWLvOYU4T+ydjN/56Foc2/9l/P7nl+PicISynBg3ZTHdP//De/LPnjx0TVb/loOUqF3DIMWLA6gAKcZTD6zrsuSXwkUax/Ya0NfXzzdVb2zuSUsVcsjAY3VnDCXyCdio84V77OGtbuwhRs5KZj1FlWpmU67PI3E/6hHGCwhMpUKbPy/1UGv/jWuojA46y7nqPEbbYJjUXgIlZBCDn434x//ciO988C9x/NBEHD38pd1Ph87H0QNjcsqfOjyh5BBUAKxvAPPJ3nMypH7no4vyIaNWJAs15yM+P4zbaCxOHL4a3/rGcJw4xCD4WZz8aEwsynX++F9dj//zz6bjzD81bVC9pLDafFB2U/mirVb84Hu34+S+ixL1gHk7QIpUSMJJkMoNWMupyP/Xu7evvbLqk5iIMjElCaPIM0HMos+nXKN07lHEzC375P/Dn92MPf/4X58F3n9oFgPq1RQL2tolNXOThIOmk5zLkttQdoJ1vQ/df/yKIN2kPir9FNcTYp6tQZgt4t98ckmJHkR2jhz4lcSwxPThs/Hp3pE4fmhURguO9uP7fxU49T//9piY9Ojer+M//8BJHwBeCdONiJOct++cLPbTh7+Wjsf9yR1VIKAxJ90VHdkZTE4W0TOi37acl/qD792Nzw5e0mAhRLvVIIVFaZskHPbJpJUqVpFHf/+t7bv1W8R9BgpYDAQpTXKzxXs3XlGr9GEzGk/n4/ndiHM/78Rf/vBG/OB7Z2MPbiZ8ZTqAKSQznZh9EMHitlyIZRCtr2RkIum7GoFre9ilXpZr+bpaHKzUQRWTDgCkssCJLs1hZbdj6Jed+OSD3wb6InH0kwe/jH/8bwvxxf/TiH/+aTN+8bNm/OKnEV/8dTd++dOIX/5dM/7d//pA4VKBev9wnD40FDO3ynQWwL8QcfyDc2JdUvKOfviF2kzup+JPZTlyJTiTyU82k1QPUvCIYnV6Ea2f/PHDOHVgJI7tH4sT+89vOUix7GmjBGRFPllbYak+W/tvXC+vWQep5jqNWx8lsoR4ny318pHiWh/stvH1N//xmcOiUG6b+UyUgX7QjWZZ5JYs/Rtl/U6FK4uTtxILa3/gpYHsl9AIZgU7gdQ6ac842QRYdQ2YShn0Ef/bd29LLMOWZCT91x/OGCDzRS0oWUNOrGa574jZF604RWbS/qE4efB6HN13JX7+f0c0Zx3/b8w3FeI8cgAWnojTh0fj6jlnLwEA8k0FxhbzppyBj8HVSeDimy1s/8M/eBxHPxhVet+x/b/ZcpDyXAweA6mez0u65OZJKAlICSyFgLiuGHW0GbcvexlyEu8zHMricI40tbVEE5GpPfgO5x814yUugbLKXUadsO4pNpX1fPLBbd1v/iW4Xo42mNRAtjM/mUcicYNAFVNglMyF4umIa5JB0DeJ9FDtDfHbWfAUEIdQHaGSvvgS3+hC/JcfPZMhc/KjCZ3/b45clu+TZ0MnPY2hdPBqHDtwLU58NBRjo44uye1VPABEnZTZT2Y+79MsjLrQCcK3XOvHf/gqPj80EZ9/ezw++fCftxykDGIqFLpfK7AOSidlJRT1bw3weIpQKSSdR6tpSeipTFkCpBSlIyvq5VQjXj2I2OP4aUvTF6ie93RqIZ4+6Kqm5a1LjRg/40RY2HPgIC0uLY3knuFkZ77KO24QnAlsi1UA04q/+skL+THJ4yQh5E//5+kidmE6s2Ie7zBmmWH50ssBkRH1yYF/ieOHL8TnB+/HV/9g3ysD4cgHX9tAOsS1v9BUHNUGJfsKtiKoABCVbkfCSakjyvuhpyrPsxU/+sMncWzvb+Poga+Vzb/VOikgbTy3aygJw0QxmOkj1LBV39bdWfR5ISdS9kgPZaFiRaZwdZ5x0eZHt1sxN8VM5hJxgmpJLmEp6DvjTDM1my0tojcr4hefX3+JdCozIF48LLM0C1BlTZekXYnxIpoTkEvtM5P9/o2Io/v/Lk7tuxafH7gX3/nGL+LMz6tlG5c6l98ALWFDEp//9+99GZ988EWcPnguTu4fjz/9n0gibsgHe3z/38fxD0fj1P4rcergL+Vicc7qKkkyiPk5rPsFqQU/+qMrUkOO7B9WXulvfjbtmaQkes/bx6vngp2ZUrKZQVyqmmBM4sCH4TRtiLltAypoZhUx1QgzKINBmXUU8sVTVArSsbaU1oQdctnyl/dDhi6ifw9KK0mnzAol4RgfmYBTE8V892+LAbZZEHNNMXRh1AQpvxORgKWyIxZ/XqXzE9jofi/bsp4br1oS0RhQqilFJGqVTmYOfnd2TmBceGZQt8vMT8X5sfAX2tF42VECChEo2HL+6domytm4ssjlWdBzyfQnmbrBtQlC4CV4RSZVMb6KseY5+2trh5Xek3aGxQApUcUU0TkrYzN9jO6ZFn0yNX2bvyOlxaDcH0ldYv2omaSQuhJ0O5T0jAUPBU/qoOJkXwKk3IBtMw/ef64eusyl0gMLsJ2Yub18B9QBu1IHqIOfdVVeXccpnGnga3LdKiAViDC6Xsw7rPqKacswX1lxr0wMTDVBRhIg0tTr1Zna4VVXJcED4JS+MniUbzAXzedzEsk8f++ZS2BitXdfy/9IT/cJIO2aTWG7s5lLsXFiMiAX48UYKkkthZz4TYNCakFbiU1I91y2fg+Tnlj2UPoBIC3TQjSyCih94crI6QfaRr8jVlLX5R7ZWLA5y/R4lmi35zhfS6PXj1HJQ4Co+eplXtCcK7PIqFkFpEpISdFaL6mDlY4PNucbCfwYP2RIWRTLCFvl+vLfcjzXA/Cv2kqWdvZUOzqvioiXvxeWbkgKqE4A56x2/dX+n4u4M56WvBkOEUzfDwKk9rlmvxrsFZaqOXPue47z9CHcooAUdyiMuidDnwnKBKnnoSweRdUNFt94oyA11dezqor4H2lr3XSYCdbM6I6AgQqwxnn3ONNxA8lfCqCY3Qmg0DVL4YUVO1pGD857l8cRKDmPcCt7GULFCHrZiXjl+VQqq7MGnVnPstDqATOZVfeBLcumd2AhsQWqpZTfi9hf8flXASnsffNiszenDTF8rcw1yyXJN963YMc4gYjIxuc7OOM+Y5qm1Nb0Ieo9UE2FqnvMuZNl/9CLi8xORewhPJVzr51UkEDhJktTfoJ1cy/g63Mt6y1VbBfdlJciyUCiVOV1HB2RqM/vq3QC7iW5fRDZLyvA0um67irnq5JJEa06HmP9BfUTrYsqDRCWI3c0jwO8CaRVrt96XumueiZmEiy0o82gWEC5LdfiOtyToASzRhPAq1x/JQDTjgCAVMyceKl+UOweqZlqwGKiWl+fu285R/1cVnW+e8UJ9dR8IKrJHCfWDsN4JwoFi5JPoirjMCk/UjBKeqnWo8Rwss5gcewb1B9uUCBVFnhxT6hRtCSOVQ5GH7kDYsEEJYCQK2eNc+9hvFmqnrimEp2WKkCviNhaOhqQY4TVilTwHRDpes2u9EUZafg9qUgNY6927RJE4Dg9Y86l0tRpWBm1Ar+qp3FzP7XHGgfBcveXdJrvxqPrjiiyGklWTASoCap6n2/kMzjhPPVzqSPGmmAQIwSE0Y71ruTmaZeDJDWPDDwn3zMpr+2IEw5U0Pz4jn2CzEFBN8F/BaMB1rxhvkD9+0ZewOe0y5RpdFOXHpSOSsGsEXsdXK+p1ICic4pPcS1MqNzQwmwCgQBO0nLNT7kikKhkV1iS4xad5995DjEqLitlFRFZqjHgitcvkS55MUomvyqVtKp59UX3THCavUlSWcMgWObeCdL7V7DmmyoBqTJBZcZwqmEb71ezb2ZSQUDgiP2tSy0V0iXLSSl5Wat0yoswE1BS6UcATKHdR63XVx8Bxbm9ut+JF/ebKnuCPkGFC1wFAEmg2nQa18qi5MY50770MAAqxillydfCVMt00nIM8y7+jsqjAc3AKZMC+Q6DbRaEq52v9aIkKS32YWmkoyvm+Rl4jqU2Z+iXVZoBJOhdaiPJhN+doW+QAlQrxEvrq6s9+Hr+xyVC8QKBVExVmHQXfKurErX26kmdwsp8JwS5nr7YyLH9IMVxj6HuFZmXBmcdsDl79LX6pHWwko1CAjQ6xA0KWxXmHJROmtdbbo8FyNTqrAkl67dZgfZdZL5BvpPUj9RjCTQoK8vGF7Hy5dp9oL8XJuWaFM3FBkLPxDiqA3Kpzz2Q1ifh8VnABJxlph4WFgH/W5cr0bxdIEWHQbXA6qPzpEvJkc7n5Z39g+zot/pa6O/ysaIj47+1b5X23J61RU1sxksnWExZWffrBWmdOV/7XObiox9MT9qQsj6aU0kq4A509BXG5l4o38z/l18zQ4MDrKz3VoNwDWqPRD1+ZXTS0n73xgDP9jBpegsYFK47CoPaSb8Ue9Z/W5ZJ60ClugninoOJp7peFLqM6+dvBTDr12QE8pKAlYfvuWDKqnjvOsA2+35IHrvwyiqCxWByYbrtACn954jW5GhXtg1YYh6dY/PLi/xFhlMdlP2fEf/8ZpFfnP6MQEKnJc5fB9WgP9tIs6H24GpElt7ZFfVrU3VoJ6lIuNGYmPq0WhEvGW7QfVa/HiQDVtjj0sRhL3102riqs2b/5zWDNEHbeNLVcntECuR0P9twQsAWu6BIhE71AhbPVfFsSA0gdr0GcblZNnuT53swMxMYt11b+iCZTpRcXCrsXQfYID4nSPEG4ampgxQC7Acm/cvG70uDNEvtFLdTsihJp2SjaAbfDZdqTINmEC+y8jXSJ+ualvcm2o7wJEP0fKe5Socz3NU574Fhhb4ptixRuN6AKAEPwqedl6T5OSeWXOGqsMfWi3uzte0XyAbbAsOJCFMWyU39FEJMzKEOUEGnp5OKLcsaTuifHMiGdc+sUXQHhapYqfluR+vvZKLAygAbjFGVmTSMStgUn60ZwrX0leRRZ8RMn3sPQCpQlkQWiXUGbwEu/2XiNe0Fi5E0kjq+fd2D6aPlcECf5YYdc50K3uNMD0mmtL2TlUykWgpv1ZwngLpHQfwZpjF3e0hOBz97AItPC+RPTbZciRnfV4m5L/eAg/jdI9E1UolwkUHDvCQKCThn0ws+JGiTSXoh0Dp438HPALN657JqYAGqQEoOgco7ku3kdpQUPFeFowfRT8tdg/7iv7rkJamapXkgG1xhiHaBFEmuyjn+bZG4z/qkotpHmXni0KhOeuwy0fcnMvfTcXbpplutkw5TIzWXcPGoRJdifan6HChAKUaVGlCmnawxnS87+W3cmz29ppUGao9VbTDxTsxrR00SWFTYA/Yc0BymVfvfE+6SvcnHQDKCHdLy6Een5dXrQi0B0mRNAElFiZczzZ4+gO5AWJKppypYplSrrtm0NgNwuZE0iN/TcMqXQ3yQrPDoTiX2nXSCXppO//ckfLpEzmpv1gDBjznKd7KiB25DtxvtR1tuh5/U+R22J2yo1cT/MGmCXeWFwKh1HNqg6tNJUw9FWZ1jzv0Tp1IRZyWUtWix25IUC3gGAcKVrsFLXvkqk1mK2EdUFaCir2TyMp2j3NEi1uui8G1kyTU9c5EcOpYAB9E4jCjaYN6LY1AtpJfQjvsQ6x5dcRT/5VbrpKWgSMEMjNrTUfntTDfujjmHtA5SRH29+vOexX+2e5WemVZCMnReWKuCkBvI1IIzOQ11618Sa9Q6TRbbBaSu9IcSTl5i5pxK7L+DuueygFWubKWXCqAszjZrPyRpcfgnAaYZ1I51gbQ3XWfr+tA2RcWeCVD26ZbC/y2Lf6YtNp0lPU8grS+AWxRWxD2OVkQ8CSXXzy8IoNInEBFK+2/Juhdgt8NwGoq4ccm1qDRR8FxONbH/dOzrlvQanNTKXCfCUqovv2b1v4vgTSbt6aKuFYAkfDCxUCSgQWK1yYBMj8mWM2lRCZlpUakXfp6Jc22RYM5nwhjW8uG91L06SPvS9BD9zHmeuZ7KtVFfn1oiS5upzwlU7bl5x1Y/I3ekqk6xVY1BKhijkoUoqLMqxsEFQ6IzoCwL5Sp+XUCqpOEy1WNZhtohgJY7iWctz9OvwliClATrkpDNWgAsy82g3qp2z+uOjyx47S8qkgyb1MSQI23pm6xmw6wPbx0VxjN2OpLGd8ddEx/mfD7VKCLehhMepcV+0gQq/lJcTtMRT293Y/K8qwC7YJnFhtwKBRxXvkLHYfFSZ+6nQg5wxr7ahkZSXLgdTEnAUuTFNGOz0fVcIDoXlimWfq/TNUeorOW0QwCZQFy0rxlGacn3/sdh30QPZ/ZAyWt44aWO0h+aYNq6vQubgYkrZ5yfCgYwiHDc5xQRxDnGERKaHBBI5d5Vz2/iGIO01YtAVVGnkvSMmO9tBaQS/VMRdy6VqhZDHfknqQslUJ5tCRgYVTyQ9dV2Wb+8ZaexVj3bOn2Hhr86SlzY+qkYddIVAgXM2bJoLiBMkKYPUez0FoRV0xhixmw9OKGIEtX4vKIKRhIiXrW7mFhXqjZvHTjdr7S5mBFVsFc7oRsYa0xHguwc4nS922RHW+8Gcf6GH97H+pyMSMmZXwcoTtW6Ux994f7VVjy41lRGNTfOqmforoyO++MGMtkuPDR0L2NrG8QNDYSuxWzHKyOduHo+4sGkw26s+MHCtYtEZOncxXOVKnHaY6kdxK4CJwCtgzSfr2Tao5NjgOCFoR/kedkG74v72saY1YvKrZThTiKWaZwnIFOM853jeqDtxewrUd8DqYBZyj0C2vwOEKFiNt8glGiCBcbG6KU8pL0AVb7pla9DhWS3eiT3rFbY42w7LhPhGHaHMY/G/lODEMtf+ihAXa7Ts/N30r48q1SVUoOgPvAQpST+INEwTrbLKMq+tffFtgH3xqduIrPqqCBRkdb19DyeG0O9royfjAAAFBtJREFUn0EBbD+YNX0kQfk6q8Ks1NDvlurPrgKtmP5Mw/OinziZ1dZ/9bBZZCJfZiv2FjGuYcWoxjUGi1NogNpW6Dta1AHdrpS+WZGZdhI4ccYXn6f0UflAGXgtiX6Mpqf3KKZQltasuZnS9bMVbV6/pmyPnlrnqBauS8AnsLHUknJHa5M7a4THXCf7Q02EZlWYlWvwW9FJewCtuaIEVhz7Je8vRwO0zfEkonjiPp8dNnVj8aDOXKq/zNZ99qCQmlHzMKSeyioX6GkwvtgzDRF00iIqd6KIz2eqM6akQlnbFAmHBJNDvuRrIkEYpJADC8T1PC9b6rC3cSz17mzE7THXF1UGEzH5mr2TgKvvE4wysJSiB0BbNXZdBqQAUqCUfura+f1AzmME1jK5/+n9luKxNBbO4rT2tg6gXYl42JSaluhjJC+wKJpYnaiKnqWlqoGIEHU6tUgXzZ/fuTopbJkeCSQAPmAAiv6p5d/RO0thhyxCLH8yBs3Q1keUUpIh5tGDKTKXLPoK/ZIy47naXc2IMlAL287Ymc9KI5wLwBO8CegVZ4vWR8JSn0nne/mApBQ7Xmk8dCOYTMr7lo7iNXgOzjdcUpAFri54DQBVr0Os1/yPyVy513KPRG5UsaSK6OT/a96voPtq3VMKnLGkIwGIUrMKMDKYpD/D9sUjIev9FvWS2qo2Mr4NhulqBIPByqCAIDCw00CCGe1aMhMCtrpxlJ8ThKvtNwVSMarEv+fuE+vH/cDL2dJfA5C2EMia963ro7eZZW9fcqyYEo6ZmFLtK1aV7gqYi4ogvVAVSvBPekW86jyysF7fMmXQ4crX/3fF5zIICjgX6cyUnXpudw5+RxJrEK1M9R4bJYrzZttX1r3qmnY1URP2TL1ysfGTOqfdS9sKUqy15lMvTgbTcnMctQDUyvubbcQxvAwYFKMOONCobJQRwplMCRdAoMhNmTItYJU8zfzcA2gaVulvze/L7vHFVuDM65gtS3U+VRYhnFlNOeZ5SJwhOZgCxyQL055SbVQ31sbhTgCpBv9IW67IZ2WVO0Q2IDVgFwMzAcp+NQbN/wfApM5BTT2V1DDPKjWjvsmGpKRgGlXoyVmPKOPI1Lq6O2ErmXAiIJKBRWiV6nXp/in64GLQVqy7rPgXAK1aJDBzr3MU+aquAzjl1rvXianrrixYDXgn1lhCebC9ybb1vSEBsv1bCvZklAm/LQaQ2XQxi+Y8JvYJwtX2mwIpln3qIZr6jHO/jHwU+jfdiBmuTQaFjS4Pt+X4V2XhUjAY/RlfLzo1AQrrrRRJK1GpFO91xuyJ50w6fn2fIF8KxBLrjY7CmgwQ/IYET6jYwiCXdV48Fjw/4DRALZ3qn99UO/sZ8OjYPwsJ8A7pV68DMhl0sd99bUDdFEjxl2K9yRsw44x5VnUm8cCi6c2Ke4IK8jaUAmtKgBnpBrrqFeLNqAPoVMVthuuGaRakAOK6Qmz11AFYtYC0J7Zh3NU2gXnxuYCf3FcGBNMoqOxB/gFg5HnUdmWQS8zX8zCLvr8TDNMcKLRrfrbbr6OJmwnMpfdVUvOWMil0jkuEfRpNbtSdIY4ybKqQHZ1eXCV0MI2ae/RWIifseX6YKf9Hf707HjF1gym5do9Q4DUXekjgLrUHiExz0WrD067LSSWYO2P2Nrhji97MQCnPxP0zvMkxfpZSHlP/+Zw3xaB5X55LOv+ituxooOPH7QdnsuhqoOz/f1NMyk3nn1KEqqt0LDmRMU7o9AEsDJCNsdE9Il1z98nmVya6oyJcTz7V16xj5wHovJIUnCDJZyCJGFG8ls3HdmNiqOOtd78EmUVl6sjcw4Mkxburxeh5CxCoI6qVOnrrXr1JaWUyoojHlRHnDMglhSE1VmU11cHaD8C1fN8USNPpikVPQ6tDS3gSESC9b8Qpf5nZLzE1GnGpOJs5x51UrWfJ6NwJ4iyB+a7ukwmRIqn3ekDg564VNVaVZmecyQ02WhJ6ikpy5YzdYXaRkbexIJWpAmc66Nemg/YDd1MghUlJsCVWrpdLBb/Mn+Ghs4MNRut/PTbo86cmMHFrpNjN83f3g2fMuppTB6n6kpzgXsqfiQSjbuq6M83wihC4YZKf+grpUqQoKZwYUBVIq8/9AFzL902BFF0UizitaFG9dKiSoV90K5gy9cNsGI/iTJStFqVKoO6CdPCg7B/o9EWC0yRSqRsy4kqxMf4jCOICuPZEUGeU7ySbsxQ9x2OIIkHRu8mSWwqk9d/WAlCO2RRIs+45OZwJOl4c6xQWxU+J5cpDs+mFmEdfe3k3TupoNlj4zb9vfUf1d9z79T1130riJYtmH7AniogXgoANIXCmvvMZSZoZ9/Tv3bGugjmk6mUMvw7K/s/bAlIctrhoeFCK7JIpD2Pic6SYBCONUFl6AHhIXpY0OhoD1qw3hgDeW3K6MnLeL+Bs38Bc3N6VRyP7BLK5dTli5hbJIE6Ixy+O29Eg5ffKaQ8O8PciYfm9H5T937cFpCSYOJHV7hlYE/FPnqOzWgxQFzybj8YTl6HGB+ly2MTUy2zQWla/QbkL0q0enKhUqVYlMLlnRpEgHDvnu4sYVH0+ZaBqhqfyPp3ADEDBRYbJ+4FZ/76tIGXaCQ+HnkL2C6G9enqf6021lDjdpChvYVRKrTDdFaDWG6n+eas76n2+fgY3aO+0BegLclLpGxYDgxnpT/rQ1e4s5okmwaiZbU//swG8BHEdkEt93haQzk03o/ms5fr6gJMITRlFvJCr8rnoWf6eYVQeGkalMXruq+KbBDg03PsMoO149wRpGk/s6QtEvCNuJcRZwGh27GiJG6JxfGcDlAnCzMQnCpm/LbffFpDmQ25m//ROK66f69g5Xnym8qmWimzb0Vnv7D2URldm/JZAgfXQKlLEd027oc4XBuuw1xsFWBnupn/NkgDPPk+WfFwryDZ73Kas+82AM88lexuxIp+q5ulUYcl3Fjy9yNNWG0l2DZkhX/ecwKSLVatQZIxFcaW2wZQwpgramlV7INV8+Y0559cL2jcKUkQ/oxX95vqFVs91RQSEktm7IN0ciAGgmJKE7yVUKLsCDV4+ZxAFo5bYOzon7qZ0Jzn2npPq3hMmlUGlCtLtuEb2VBE5mia7DVXf3odBYAvejGo9P33S6Yv2vm7lo37hpXn5ACC2eyCFXRH7YtfabM71MuN6j3+jTKoGeGgnMAkgGvk9XXTXcNrsIKpcTAWQJdBCAhBtLT91yb7iu7acvXDeS3zDnp4cV81bglxQ19YLto0e/0ZByqhErKCPupE6JbRW4sBqsBR5iKy673QXxKuBONkRndRi32FPMsCUBSYRT0aYmVbpiiWfFR8pi4NVznkMJgMzPTQbBd16z3ujIOVhESu9UVySFfhuZd9A5Ltj/3XX1C5IVwMpbei2tIOeVEoqjJDUfXccr0om8gBiJvi1pXIBaNqbcChFxuinzHjjc9oS6wXbRo9/oyDFYKIh7K8z6GgcxBEOZRqLjkAswbZs6XTO/1bvqGTi93BfxLra8GxLVZWRXARTYMiH1z0p0W1qKZXtS/uT4ZTTQeogxRf6zoh7Rg4iPTf0m7pjd4alILHqKbKKvy5T/QqToqfeu+rRzMxJlr9m5QrYgYybBG8CFQuV/wDwuwDi6j2qd/J7+d35zMDVNJh895Lco4FORZMhZ8rTdhg+mUfhvuhoYQWqz6jY2RmLfgOVGQkt5VpwHiD1OvUObW+UFTdy3pYyaQVO+9PqAOUzWVGTJWM+WTI7gdqo0zcdaqVBETGvprpqVJJXiFRdOWM3FY1aX+oc0cX1Erxv855Bx8Y7svGZ90l9Ewe8dc5qZmx6RxDnzODUVI5pu/pcIMxhbNiUfiAxRHnBDP6vKOfZ1oRKiEEWvcgFkGLp05c+byOA28g5Ww5SHiodwP0gJQmF2aVkTdH4qmU00o3bVzLzJlkYh3K7OJU9XYVVUe5cBuTtyMxwAM516MDszLcdoHVA8tmqURqRXqiB3wTMortjYN672lH2EkBkNUMIg35Io4dQpjdLO46DNKizTzUSr0vv8xKU9B+fVQTiXXHm0zAVSHP0ec8Lk4SCXkqcmEXEmBMES9JAnEuD5pYx4YxU0cDP7xc2PteQDktHWVTZUHibAZrgZMDllu/DAPSWBSN4X6sESCAmDj4rKXMJTliQtiR4wqbPj7t21k/xX6nbxAJgDzKLySFQk0wBaMkjNWDfgYhTfQT2RmFNL6VhrIB70alHtztS6HVeyVlMUNb3yQC65kOLM8SaXVSVSMxOfVv3cgnVfZoFnOn5QKWBRRUEoZhwme7BGldub+eBQhSAlTbMwV6Py6dznv+zTyCQugQUg/b6DvBWCy9sRISv55wtFfc0VG75knXg0jg0iv9zZIPPsCuNkA3JMTRyNrQakxqYUwtOI3vkogQYYDBKXXd7WwHKc+d0HIPSeqh1UeuhdTYFsGLcoZzmYRakLWnTnsE0hW5vVqUd620MuyZgq37J/sm+dNY9632tB2ibOXbgIOXlckuALrd3Kp/dIanQ+9hOzD91VIORn/85ROfiaGIFpjE84n/nPnoplneHSXOwZRIyrImLLsW9SrAXb4Z+K9OtUZlgQYv6HPTVQKeNaVOWpeHzqwcRZDXRptL9a+l3JhAAatADtiSMzQBvPee+MZDq5YvuwyhXY/VCcMVdUvSkbBj2NFYOAvY0LBYo01JwWaV34G1m0Hx266JedJjJbuiaWVhCqg0eDFn8xXASSLtx/XyzWOAGqsGa1rmZUe1dwIprSbo/sXkMLdkLBmUCsgKp2xuPwHqAtpljVwRpPmDufaMUy+mO2D7a73/ReVi7TAzDMsX5DFDlfiIQkPP3yQcYopyNLV7qBDA9FyNDiS0YJ2WmI05sWcqlw9H32NKqlp6o76kD1yxthW3r3yuxbH25KjqWbMgzItZhSPuLvYod9aDwId+/FvHwVjcoUgz7AQ75l2viXbrp6IKfkXc+146n2wii/n4Z9Pc1g3TQNx7E9bBCSSWj41jcACDS+XQSRgQdr/3ZlvyAuFk01Raf4VTEYwIEt1gQy94Fsn8mz3syoYCOPxKQynLGJwsADX5+k84ImJfZ0sBhr+eq+Tn5Tr0C9taju5o2jAFIlIeVXuQGQhxLb0fMun4Svz+4RuaYw5jcn2fTtcgkO2cwD6KNd8I1VgTp0g9YExel8P7Sx209w+JnheXp0BvnSxSqlHhEj1MnDpNlVU0Sk5rxiJmMLakJfAew1Nak81EbmGMOOC12DSLAnsYMoBtnLlBJzFh+73PS2AFEudnQKUxLZO2aBxuqC8/DHh2c97MOaVWHtkY0v7jfjNtjZTmcIjUEUkWNGnqPN9Uvg77vHqy75bbXb1YB1Drk1gPx9Weo7skzoM8ydVpOfUR2qZCnDhvuyOGvBF4ZWIDV5wNSdDGMB+5R12+ZQ+5aUWZOMykzBooKwbLcRGUmWPltpQ2/r+ety1WUqXICtx3zNo46ug6MaVC2YvYxemUJQdaMURk3ZW7Rw9tNBT545/Ez9jMjDcis13TyN0wiK/Xdev7bs5aDrTSnC8Kj3CO9AsxarjPoYzxQqIhMTN9zpWC71BvR62BGOh7GtI/Q4tNgsDsFlYH/2HhGOpiQovVQM6lYtETFKC/D9G3aYKUtGZFnINtdjFqLivVE9LBBqmsVK5p6rzkbsw7M+mf6RdPDidiNNFXPgPBm1jsYdHu/qettDKTF//mmHjrvC0hzQ1TTYSSgwHIsMQkjamHVmaYLGuCXJdN8ym4UQKFF05jl+sRrVOH/Q8clVOvolUGaYnr8TDdunO+siak0o/KJxfe9ibaiYrAx1yLvQGHgAlqe3V6OsjRR8WxoYMGoD5s9B3oOTphWhtRNl4FnMOSgQTJkO73t+xVBmgBYvDfb7IQXh1XENkyjBgzUAFW2lBMm0FnlDywLXqVak2xEmSAYNUU9/kLelevAzMmeiPv8TLYQAwGWXLUNplzhg2sCwjSUDH6qDdrYAbRY7DKQpuwf5hl7z/vU9f1RUVICpHTzMxic/Mc5kgg47d8Vcb8YgBUzZWfl/zI4dthL0yGwYnaoJ42lXhfxcsazHhfKrEeOTUC+fGCdNN8L8QoLAWqDFAbNRJXqMwyNHqpJarU0RADSv/F88j8+tmGGQZZgt6i3fxO31+M7XRXbnZtp6H16ayD19FQ/H8kiPLNAWlLoXJOr7QIORXVR2+yw/trooFmRSTd60bflPJhJHa7OdscDtBcPUBtapfCtHebkulJv/+blltiagbHae7KiIIMCFQPm1Tr0mn3guvjXMKTOkC3f7mUdAb4cSKtd/335fxekJWJliVHlWZJCSMKwRX2ozj6BApzrAG4tIOWYjIczGPB/UmkQd5aMKPy6I02lK1p9MPA5by3X3wXpOyIqVurI1OsQ8ylCOZ7vLPWDeMaAwqeJz/XmJU+nSHZc6dr8J5BiqBXdF18sLimAij5KdUF8uOjR9fsb3Ksz9Wr3f1f+f8+ZlPh0RnSKnlfWX0/HPgYPsyYJpVJphd8BEalsq4EA1cEDoRg8054KA6Oy4Srieov8o6X25y6TVu37noPUljwslkyW7Fr9ZoMFIMGwMpjwFqhoQtWQSwK25yKzR0QqRfGt4vpi4z42uOyz5boYPe+S4bNk26xDUr/3IBWTFiMIgNKg7MWCeAdUDNZMCHAsii3KV2t8QN1/fa4tPbV2z7wv9+T6eY/Vrv++/L8L0rqLRw5wAwvAJGBxSwGkHnimqNW5us6Y4EtW5npySZVpMfyfWzJq3oPj3hcQrvaeuyDtA6kYtERrXtZEMiBKAElsryWi88jFvtwJFu0VG1tfrf9XZ1KSuVfrvPfl//capO9LJ7/t7/n/A3/373Y6WqiIAAAAAElFTkSuQmCC;" vertex="1" parent="1">
          <mxGeometry x="810" y="1030" width="103.64" height="111" as="geometry" />
        </mxCell>
        <mxCell id="-mBi3haW6h9Ss_a0iaR0-41" value="&lt;b&gt;&lt;font style=&quot;font-size: 18px&quot;&gt;ARQUITECTURA 02 - BASADO LAMBDA - REST API&lt;/font&gt;&lt;/b&gt;" style="text;html=1;strokeColor=none;fillColor=none;align=center;verticalAlign=middle;whiteSpace=wrap;rounded=0;" vertex="1" parent="1">
          <mxGeometry x="318" y="800" width="514" height="30" as="geometry" />
        </mxCell>
      </root>
    </mxGraphModel>
  </diagram>
</mxfile>
